M48
;DRILL file {KiCad 4.0.6} date 05/23/18 19:53:56
;FORMAT={-:-/ absolute / inch / decimal}
FMAT,2
INCH,TZ
T1C0.016
T2C0.035
T3C0.039
T4C0.051
T5C0.059
T6C0.067
T7C0.098
%
G90
G05
M72
T1
X0.4843Y0.7461
X0.6378Y0.7461
X0.9016Y1.2264
X0.9488Y0.5335
X1.0634Y0.8016
X1.5206Y0.4074
X2.1146Y0.9197
X2.4016Y0.8032
X2.6553Y0.4523
X2.9018Y1.1482
X3.4701Y0.7984
X3.5313Y0.8713
T2
X0.84Y1.07
X0.84Y0.97
X0.84Y0.87
X0.84Y0.77
X1.48Y0.92
X1.48Y0.82
X3.62Y0.92
X3.62Y0.82
T3
X4.475Y0.59
X4.475Y0.49
T4
X0.525Y0.4976
X0.525Y0.2024
X0.5274Y1.4476
X0.5274Y1.1524
X0.6726Y0.35
X0.675Y1.3
T5
X0.175Y0.62
X0.18Y1.05
T6
X0.075Y0.72
X0.075Y0.52
X0.08Y1.15
X0.08Y0.95
X0.275Y0.72
X0.275Y0.52
X0.28Y1.15
X0.28Y0.95
T7
X1.2835Y0.813
X1.2835Y0.5768
X3.815Y1.0492
X3.815Y0.813
X3.815Y0.5768
T0
M30
