G04 #@! TF.FileFunction,Copper,L6,Bot,Signal*
%FSLAX46Y46*%
G04 Gerber Fmt 4.6, Leading zero omitted, Abs format (unit mm)*
G04 Created by KiCad (PCBNEW 4.0.6) date 05/23/18 19:53:49*
%MOMM*%
%LPD*%
G01*
G04 APERTURE LIST*
%ADD10C,0.100000*%
%ADD11C,1.524000*%
%ADD12C,2.200000*%
%ADD13C,2.000000*%
%ADD14C,1.750000*%
%ADD15R,0.750000X1.200000*%
%ADD16O,3.010000X1.510000*%
%ADD17C,0.508000*%
%ADD18C,1.219200*%
%ADD19C,0.650010*%
%ADD20C,2.999990*%
%ADD21C,0.250000*%
%ADD22C,1.000000*%
%ADD23C,0.381000*%
%ADD24C,0.750000*%
%ADD25C,0.500000*%
%ADD26C,0.254000*%
%ADD27C,1.270000*%
G04 APERTURE END LIST*
D10*
D11*
X21336000Y24638000D03*
X21336000Y27178000D03*
X21336000Y19558000D03*
X21336000Y22098000D03*
D12*
X2032000Y24130000D03*
X2032000Y29210000D03*
X7112000Y29210000D03*
X7112000Y24130000D03*
D13*
X4572000Y26670000D03*
D14*
X13395000Y36770000D03*
X13395000Y29270000D03*
X17145000Y33020000D03*
D12*
X1905000Y13208000D03*
X1905000Y18288000D03*
X6985000Y18288000D03*
X6985000Y13208000D03*
D13*
X4445000Y15748000D03*
D11*
X37592000Y20828000D03*
X37592000Y23368000D03*
D15*
X16256000Y22286000D03*
X16256000Y20386000D03*
X12319000Y22413000D03*
X12319000Y20513000D03*
X7874000Y5268000D03*
X7874000Y3368000D03*
X4572000Y5268000D03*
X4572000Y3368000D03*
D16*
X113665000Y12446000D03*
X113665000Y14986000D03*
D11*
X91948000Y20828000D03*
X91948000Y23368000D03*
D14*
X13335000Y12640000D03*
X13335000Y5140000D03*
X17085000Y8890000D03*
D17*
X73704700Y29164030D03*
D18*
X12299950Y18949920D03*
X16199870Y18949920D03*
X24100030Y13549880D03*
X22900130Y31150050D03*
X53710080Y23360130D03*
D19*
X61000130Y20400010D03*
D18*
X27010110Y20360130D03*
X67444620Y11487400D03*
X38623750Y10348210D03*
D20*
X32599880Y20649950D03*
X96899980Y20649950D03*
X96899980Y26649930D03*
X96899980Y14649960D03*
D18*
X89696040Y22130000D03*
X88141050Y20278600D03*
D20*
X32599880Y14649960D03*
D21*
X22900130Y31150050D02*
X22900130Y32012154D01*
X22900130Y32012154D02*
X22987000Y32099024D01*
X22900130Y31150050D02*
X22900130Y29631130D01*
X22900130Y31150050D02*
X22038026Y31150050D01*
X22038026Y31150050D02*
X21971000Y31083024D01*
X13395000Y29270000D02*
X12520001Y30144999D01*
X12520001Y30144999D02*
X12520001Y30151999D01*
X13395000Y29270000D02*
X14269999Y30144999D01*
X14269999Y30144999D02*
X14269999Y30271999D01*
X13395000Y29270000D02*
X14269999Y28395001D01*
X14269999Y28395001D02*
X15038999Y28395001D01*
X13395000Y29270000D02*
X12520001Y28395001D01*
X12520001Y28395001D02*
X12520001Y28141001D01*
X7112000Y29210000D02*
X5588000Y30734000D01*
X7112000Y29210000D02*
X8509000Y30607000D01*
X7112000Y29210000D02*
X8382000Y27940000D01*
X7112000Y29210000D02*
X5842000Y27940000D01*
X2032000Y29210000D02*
X3131999Y28110001D01*
X3131999Y28110001D02*
X3385999Y28110001D01*
X2032000Y29210000D02*
X762000Y27940000D01*
X2032000Y29210000D02*
X635000Y30607000D01*
X2032000Y29210000D02*
X3131999Y30309999D01*
X3131999Y30309999D02*
X3131999Y30563999D01*
X2032000Y24130000D02*
X932001Y25229999D01*
X2032000Y24130000D02*
X3302000Y25400000D01*
X2032000Y24130000D02*
X889000Y22987000D01*
X2032000Y24130000D02*
X3131999Y23030001D01*
X3131999Y23030001D02*
X3385999Y23030001D01*
X7112000Y24130000D02*
X5588000Y22606000D01*
X7112000Y24130000D02*
X6012001Y25229999D01*
X6012001Y25229999D02*
X5758001Y25229999D01*
X7112000Y24130000D02*
X8509000Y25527000D01*
X7112000Y24130000D02*
X8211999Y23030001D01*
X8211999Y23030001D02*
X8592999Y23030001D01*
X12299950Y18949920D02*
X11437846Y18949920D01*
X11437846Y18949920D02*
X11410926Y18923000D01*
X12299950Y18949920D02*
X12299950Y18087816D01*
X12299950Y18087816D02*
X12192000Y17979866D01*
X12299950Y18949920D02*
X13162054Y18949920D01*
X13162054Y18949920D02*
X13188974Y18923000D01*
X16199870Y18949920D02*
X15012920Y18949920D01*
X16199870Y18949920D02*
X17499080Y18949920D01*
X16199870Y18949920D02*
X16199870Y18087816D01*
X16199870Y18087816D02*
X16256000Y18031686D01*
X6985000Y18288000D02*
X5885001Y19387999D01*
X5885001Y19387999D02*
X5758001Y19387999D01*
X6985000Y18288000D02*
X5842000Y17145000D01*
X6985000Y18288000D02*
X8084999Y17188001D01*
X8084999Y17188001D02*
X8846999Y17188001D01*
X6985000Y18288000D02*
X8084999Y19387999D01*
X8084999Y19387999D02*
X8084999Y19514999D01*
X1905000Y18288000D02*
X635000Y19558000D01*
X1905000Y18288000D02*
X3683000Y20066000D01*
X1905000Y18288000D02*
X762000Y17145000D01*
X1905000Y18288000D02*
X3048000Y17145000D01*
X1905000Y13208000D02*
X762000Y12065000D01*
X1905000Y13208000D02*
X635000Y14478000D01*
X1905000Y13208000D02*
X3048000Y14351000D01*
X1905000Y13208000D02*
X3175000Y11938000D01*
X6985000Y13208000D02*
X5842000Y12065000D01*
X6985000Y13208000D02*
X5885001Y14307999D01*
X5885001Y14307999D02*
X5631001Y14307999D01*
X6985000Y13208000D02*
X8509000Y14732000D01*
X6985000Y13208000D02*
X8084999Y12108001D01*
X8084999Y12108001D02*
X8465999Y12108001D01*
X24100030Y13549880D02*
X24709629Y14159479D01*
X24709629Y14159479D02*
X24709629Y14676629D01*
X24100030Y13549880D02*
X22742150Y12192000D01*
X23490431Y14159479D02*
X24100030Y13549880D01*
X23490431Y14159479D02*
X23305521Y14159479D01*
D22*
X26400511Y19669511D02*
X24130000Y17399000D01*
D21*
X26400511Y19750531D02*
X26400511Y19669511D01*
D23*
X18358100Y29194000D02*
X18358100Y31806900D01*
X18358100Y31806900D02*
X17145000Y33020000D01*
X18238980Y10155940D02*
X18497040Y10414000D01*
X18497040Y10414000D02*
X21332950Y13249910D01*
X17085000Y8890000D02*
X17959999Y9764999D01*
X17959999Y9764999D02*
X17959999Y9876959D01*
X17959999Y9876959D02*
X18497040Y10414000D01*
X17145000Y7592564D02*
X17145000Y4895090D01*
X17145000Y4895090D02*
X15490440Y3240530D01*
X17085000Y8890000D02*
X17085000Y7652564D01*
D21*
X17085000Y7652564D02*
X17145000Y7592564D01*
X15490440Y3240530D02*
X15686530Y3240530D01*
D24*
X27010110Y20360130D02*
X26400511Y19750531D01*
D21*
X26400511Y19750531D02*
X26354531Y19750531D01*
X7039860Y16637663D02*
X6985000Y16582803D01*
X43109900Y28349960D02*
X43081960Y28349960D01*
D25*
X43081960Y28349960D02*
X40132000Y25400000D01*
X40132000Y25400000D02*
X40132000Y16124940D01*
X40132000Y16124940D02*
X43307000Y12949940D01*
X90403430Y12949940D02*
X43307000Y12949940D01*
X43109900Y28349960D02*
X86995000Y28349960D01*
X89696040Y25648920D02*
X86995000Y28349960D01*
X89696040Y22130000D02*
X89696040Y25648920D01*
D26*
X15564870Y20297390D02*
X15056870Y20297390D01*
X12934950Y20297390D02*
X13442950Y20297390D01*
D10*
X5644640Y24106630D02*
X3409440Y24106630D01*
X5644640Y29186630D02*
X3409440Y29186630D01*
X24390350Y508000D02*
X609600Y508000D01*
X3077720Y15743680D02*
X508000Y15743680D01*
X5617720Y18283680D02*
X3382260Y18283680D01*
X3104640Y26646630D02*
X508000Y26646630D01*
X12179050Y39215570D02*
X508000Y39215570D01*
X5516370Y6097520D02*
X5045960Y6097520D01*
X5617720Y13203680D02*
X4944360Y13203680D01*
X12179550Y29186630D02*
X8489440Y29186630D01*
X17437100Y22141690D02*
X17246350Y22331170D01*
X19470120Y20122130D02*
X17424400Y22154390D01*
X20316700Y24681690D02*
X18802600Y24681690D01*
D26*
X15564870Y20297390D02*
X15056870Y20297390D01*
X12934950Y20297390D02*
X13442950Y20297390D01*
D25*
X16199870Y20297390D02*
X12299950Y20297390D01*
X12299950Y20297390D02*
X12299950Y18949920D01*
X16199870Y20297390D02*
X16199870Y18949920D01*
D27*
X113899950Y12469620D02*
X112394240Y10963910D01*
X112394240Y10963910D02*
X92609920Y10963910D01*
X92609920Y10963910D02*
X90623900Y12949940D01*
X90623900Y12949940D02*
X90403430Y12949940D01*
D23*
X4499860Y3290570D02*
X7658100Y3240530D01*
X16199870Y22202390D02*
X12299950Y22202390D01*
X18358100Y29194000D02*
X18358100Y24360630D01*
X18358100Y24360630D02*
X16199870Y22202390D01*
X7658100Y3240530D02*
X14500100Y3240530D01*
X14500100Y3240530D02*
X15490440Y3240530D01*
X18200120Y10066020D02*
X18238980Y10105140D01*
X21332950Y19608040D02*
X19599660Y19591020D01*
X19599660Y19591020D02*
X19299940Y19591020D01*
X19299940Y19591020D02*
X16688560Y22202390D01*
X16688560Y22202390D02*
X16199870Y22202390D01*
X18238980Y10105140D02*
X18238980Y10155940D01*
X21332950Y13249910D02*
X21332950Y19608040D01*
X4499860Y5195570D02*
X7658100Y5145530D01*
X7658100Y5145530D02*
X13238990Y5104890D01*
X4499860Y15750030D02*
X4499860Y5195570D01*
D26*
G36*
X24471350Y32150050D02*
X24511587Y31947764D01*
X24626173Y31776273D01*
X24797664Y31661687D01*
X24892000Y31642922D01*
X24892000Y14223781D01*
X24687983Y14428154D01*
X24307127Y14586299D01*
X23894742Y14586659D01*
X23513610Y14429179D01*
X23221756Y14137833D01*
X23063611Y13756977D01*
X23063251Y13344592D01*
X23220731Y12963460D01*
X23512077Y12671606D01*
X23892933Y12513461D01*
X24305318Y12513101D01*
X24686450Y12670581D01*
X24892000Y12875773D01*
X24892000Y9657228D01*
X24797664Y9638463D01*
X24626173Y9523877D01*
X24511587Y9352386D01*
X24471350Y9150100D01*
X24471350Y918888D01*
X24390350Y935000D01*
X609600Y935000D01*
X528600Y918888D01*
X528600Y12223356D01*
X680132Y12162737D01*
X735523Y12218128D01*
X914971Y12038366D01*
X859737Y11983132D01*
X970641Y11705901D01*
X1616593Y11462677D01*
X2306453Y11485164D01*
X2839359Y11705901D01*
X2950263Y11983132D01*
X2894872Y12038523D01*
X3074634Y12217971D01*
X3129868Y12162737D01*
X3407099Y12273641D01*
X3650323Y12919593D01*
X3627836Y13609453D01*
X3407099Y14142359D01*
X3129868Y14253263D01*
X3074477Y14197872D01*
X2895029Y14377634D01*
X2950263Y14432868D01*
X2839359Y14710099D01*
X2193407Y14953323D01*
X1503547Y14930836D01*
X970641Y14710099D01*
X859737Y14432868D01*
X915128Y14377477D01*
X735366Y14198029D01*
X680132Y14253263D01*
X528600Y14192644D01*
X528600Y15316680D01*
X2842140Y15316680D01*
X3025613Y14873736D01*
X3292468Y14775073D01*
X3346234Y14828839D01*
X3525682Y14649077D01*
X3472073Y14595468D01*
X3570736Y14328613D01*
X3882360Y14212841D01*
X3882360Y6424991D01*
X3837301Y6406327D01*
X3658673Y6227698D01*
X3562000Y5994309D01*
X3562000Y5553750D01*
X3720750Y5395000D01*
X3761635Y5395000D01*
X3761635Y5141000D01*
X3720750Y5141000D01*
X3562000Y4982250D01*
X3562000Y4541691D01*
X3654656Y4318000D01*
X3562000Y4094309D01*
X3562000Y3653750D01*
X3720750Y3495000D01*
X3761635Y3495000D01*
X3761635Y3241000D01*
X3720750Y3241000D01*
X3562000Y3082250D01*
X3562000Y2641691D01*
X3658673Y2408302D01*
X3837301Y2229673D01*
X4070690Y2133000D01*
X4286250Y2133000D01*
X4445000Y2291750D01*
X4445000Y2332635D01*
X4699000Y2332635D01*
X4699000Y2291750D01*
X4857750Y2133000D01*
X5073310Y2133000D01*
X5306699Y2229673D01*
X5485327Y2408302D01*
X5582000Y2641691D01*
X5582000Y2655847D01*
X6866567Y2635494D01*
X6960673Y2408302D01*
X7139301Y2229673D01*
X7372690Y2133000D01*
X7588250Y2133000D01*
X7747000Y2291750D01*
X7747000Y2332635D01*
X8001000Y2332635D01*
X8001000Y2291750D01*
X8159750Y2133000D01*
X8375310Y2133000D01*
X8608699Y2229673D01*
X8787327Y2408302D01*
X8876270Y2623030D01*
X15490440Y2623030D01*
X15726747Y2670034D01*
X15783208Y2707760D01*
X15897771Y2730548D01*
X16076853Y2850207D01*
X16196512Y3029289D01*
X16207446Y3084260D01*
X17581638Y4458451D01*
X17715496Y4658783D01*
X17726098Y4712083D01*
X17762500Y4895090D01*
X17762500Y7523672D01*
X17884116Y7574047D01*
X17967455Y7827940D01*
X17915773Y7879622D01*
X18095535Y8059070D01*
X18147060Y8007545D01*
X18400953Y8090884D01*
X18606590Y8655306D01*
X18580579Y9255458D01*
X18491547Y9470402D01*
X18530495Y9528691D01*
X18537305Y9562928D01*
X18638212Y9630840D01*
X18677071Y9669959D01*
X18743108Y9769507D01*
X18777914Y9821597D01*
X18933679Y9977362D01*
X18933681Y9977365D01*
X21769588Y12813271D01*
X21903446Y13013602D01*
X21941254Y13203680D01*
X21950450Y13249910D01*
X21950450Y18287267D01*
X22067143Y18335603D01*
X22136608Y18577787D01*
X22086870Y18627525D01*
X22266631Y18806974D01*
X22316213Y18757392D01*
X22558397Y18826857D01*
X22745144Y19350302D01*
X22717362Y19905368D01*
X22558397Y20289143D01*
X22316213Y20358608D01*
X22266475Y20308870D01*
X22087026Y20488631D01*
X22136608Y20538213D01*
X22067143Y20780397D01*
X21943656Y20824453D01*
X22067143Y20875603D01*
X22136608Y21117787D01*
X22086870Y21167525D01*
X22266631Y21346974D01*
X22316213Y21297392D01*
X22558397Y21366857D01*
X22745144Y21890302D01*
X22717362Y22445368D01*
X22558397Y22829143D01*
X22316213Y22898608D01*
X22266475Y22848870D01*
X22087026Y23028631D01*
X22136608Y23078213D01*
X22067143Y23320397D01*
X21943656Y23364453D01*
X22067143Y23415603D01*
X22136608Y23657787D01*
X22086870Y23707525D01*
X22266631Y23886974D01*
X22316213Y23837392D01*
X22558397Y23906857D01*
X22745144Y24430302D01*
X22717362Y24985368D01*
X22558397Y25369143D01*
X22316213Y25438608D01*
X22266475Y25388870D01*
X22087026Y25568631D01*
X22136608Y25618213D01*
X22067143Y25860397D01*
X21943656Y25904453D01*
X22067143Y25955603D01*
X22136608Y26197787D01*
X22086870Y26247525D01*
X22266631Y26426974D01*
X22316213Y26377392D01*
X22558397Y26446857D01*
X22745144Y26970302D01*
X22717362Y27525368D01*
X22558397Y27909143D01*
X22316213Y27978608D01*
X22266475Y27928870D01*
X22087026Y28108631D01*
X22136608Y28158213D01*
X22067143Y28400397D01*
X21543698Y28587144D01*
X20988632Y28559362D01*
X20604857Y28400397D01*
X20535392Y28158213D01*
X20585130Y28108475D01*
X20405369Y27929026D01*
X20355787Y27978608D01*
X20113603Y27909143D01*
X19926856Y27385698D01*
X19954638Y26830632D01*
X20113603Y26446857D01*
X20355787Y26377392D01*
X20405525Y26427130D01*
X20584974Y26247369D01*
X20535392Y26197787D01*
X20604857Y25955603D01*
X20728344Y25911547D01*
X20604857Y25860397D01*
X20535392Y25618213D01*
X20585130Y25568475D01*
X20405369Y25389026D01*
X20355787Y25438608D01*
X20113603Y25369143D01*
X20020682Y25108690D01*
X18975600Y25108690D01*
X18975600Y30944762D01*
X21863351Y30944762D01*
X22020831Y30563630D01*
X22312177Y30271776D01*
X22693033Y30113631D01*
X23105418Y30113271D01*
X23486550Y30270751D01*
X23778404Y30562097D01*
X23936549Y30942953D01*
X23936909Y31355338D01*
X23779429Y31736470D01*
X23488083Y32028324D01*
X23107227Y32186469D01*
X22694842Y32186829D01*
X22313710Y32029349D01*
X22021856Y31738003D01*
X21863711Y31357147D01*
X21863351Y30944762D01*
X18975600Y30944762D01*
X18975600Y31806900D01*
X18936394Y32004002D01*
X18928596Y32043208D01*
X18794738Y32243539D01*
X18556137Y32482140D01*
X18666590Y32785306D01*
X18640579Y33385458D01*
X18460953Y33819116D01*
X18207060Y33902455D01*
X18155378Y33850773D01*
X17975930Y34030535D01*
X18027455Y34082060D01*
X17944116Y34335953D01*
X17379694Y34541590D01*
X16779542Y34515579D01*
X16345884Y34335953D01*
X16262545Y34082060D01*
X16314227Y34030378D01*
X16134465Y33850930D01*
X16082940Y33902455D01*
X15829047Y33819116D01*
X15623410Y33254694D01*
X15649421Y32654542D01*
X15829047Y32220884D01*
X16082940Y32137545D01*
X16134622Y32189227D01*
X16314070Y32009465D01*
X16262545Y31957940D01*
X16345884Y31704047D01*
X16910306Y31498410D01*
X17510458Y31524421D01*
X17692075Y31599649D01*
X17740600Y31551123D01*
X17740600Y24616406D01*
X16645200Y23521000D01*
X16541750Y23521000D01*
X16383000Y23362250D01*
X16383000Y23321365D01*
X16129000Y23321365D01*
X16129000Y23362250D01*
X15970250Y23521000D01*
X15754690Y23521000D01*
X15521301Y23424327D01*
X15342673Y23245698D01*
X15246000Y23012309D01*
X15246000Y22819890D01*
X13329000Y22819890D01*
X13329000Y23139309D01*
X13232327Y23372698D01*
X13053699Y23551327D01*
X12820310Y23648000D01*
X12604750Y23648000D01*
X12446000Y23489250D01*
X12446000Y23448365D01*
X12192000Y23448365D01*
X12192000Y23489250D01*
X12033250Y23648000D01*
X11817690Y23648000D01*
X11584301Y23551327D01*
X11405673Y23372698D01*
X11309000Y23139309D01*
X11309000Y22698750D01*
X11467750Y22540000D01*
X11508635Y22540000D01*
X11508635Y22286000D01*
X11467750Y22286000D01*
X11309000Y22127250D01*
X11309000Y21686691D01*
X11401656Y21463000D01*
X11309000Y21239309D01*
X11309000Y20798750D01*
X11467750Y20640000D01*
X11508635Y20640000D01*
X11508635Y20386000D01*
X11467750Y20386000D01*
X11309000Y20227250D01*
X11309000Y19786691D01*
X11405673Y19553302D01*
X11421508Y19537467D01*
X11263531Y19157017D01*
X11263171Y18744632D01*
X11420651Y18363500D01*
X11711997Y18071646D01*
X12092853Y17913501D01*
X12505238Y17913141D01*
X12886370Y18070621D01*
X13178224Y18361967D01*
X13336369Y18742823D01*
X13336729Y19155208D01*
X13189809Y19510783D01*
X13232327Y19553302D01*
X13260116Y19620390D01*
X15262279Y19620390D01*
X15309012Y19507567D01*
X15163451Y19157017D01*
X15163091Y18744632D01*
X15320571Y18363500D01*
X15611917Y18071646D01*
X15992773Y17913501D01*
X16405158Y17913141D01*
X16786290Y18070621D01*
X17078144Y18361967D01*
X17236289Y18742823D01*
X17236649Y19155208D01*
X17137703Y19394677D01*
X17169327Y19426302D01*
X17266000Y19659691D01*
X17266000Y20100250D01*
X17107250Y20259000D01*
X17066365Y20259000D01*
X17066365Y20513000D01*
X17107250Y20513000D01*
X17266000Y20671750D01*
X17266000Y20751677D01*
X18863302Y19154381D01*
X18983392Y19074140D01*
X19063633Y19020524D01*
X19299940Y18973520D01*
X19599660Y18973520D01*
X19602689Y18974123D01*
X19605723Y18973550D01*
X20051029Y18977923D01*
X20113603Y18826857D01*
X20355787Y18757392D01*
X20405525Y18807130D01*
X20584974Y18627369D01*
X20535392Y18577787D01*
X20604857Y18335603D01*
X20715450Y18296147D01*
X20715450Y13505687D01*
X18060405Y10850641D01*
X18060402Y10850639D01*
X17540799Y10331035D01*
X17319694Y10411590D01*
X16719542Y10385579D01*
X16285884Y10205953D01*
X16202545Y9952060D01*
X16254227Y9900378D01*
X16074465Y9720930D01*
X16022940Y9772455D01*
X15769047Y9689116D01*
X15563410Y9124694D01*
X15589421Y8524542D01*
X15769047Y8090884D01*
X16022940Y8007545D01*
X16074622Y8059227D01*
X16254070Y7879465D01*
X16202545Y7827940D01*
X16285884Y7574047D01*
X16498528Y7496574D01*
X16514504Y7416257D01*
X16527500Y7396807D01*
X16527500Y5150867D01*
X15234664Y3858030D01*
X14145271Y3858030D01*
X14217455Y4077940D01*
X14165773Y4129622D01*
X14345535Y4309070D01*
X14397060Y4257545D01*
X14650953Y4340884D01*
X14856590Y4905306D01*
X14830579Y5505458D01*
X14650953Y5939116D01*
X14397060Y6022455D01*
X14345378Y5970773D01*
X14165930Y6150535D01*
X14217455Y6202060D01*
X14134116Y6455953D01*
X13569694Y6661590D01*
X12969542Y6635579D01*
X12535884Y6455953D01*
X12452545Y6202060D01*
X12504227Y6150378D01*
X12324465Y5970930D01*
X12272940Y6022455D01*
X12019047Y5939116D01*
X11943530Y5731840D01*
X8884000Y5754120D01*
X8884000Y5994309D01*
X8787327Y6227698D01*
X8608699Y6406327D01*
X8375310Y6503000D01*
X8159750Y6503000D01*
X8001000Y6344250D01*
X8001000Y6303365D01*
X7747000Y6303365D01*
X7747000Y6344250D01*
X7588250Y6503000D01*
X7372690Y6503000D01*
X7139301Y6406327D01*
X6960673Y6227698D01*
X6864000Y5994309D01*
X6864000Y5775690D01*
X5813441Y5792335D01*
X5818305Y5795585D01*
X5910867Y5934114D01*
X5943370Y6097520D01*
X5910867Y6260926D01*
X5818305Y6399455D01*
X5679776Y6492017D01*
X5516370Y6524520D01*
X5117360Y6524520D01*
X5117360Y12776680D01*
X5274535Y12776680D01*
X5482901Y12273641D01*
X5760132Y12162737D01*
X5815523Y12218128D01*
X5994971Y12038366D01*
X5939737Y11983132D01*
X6050641Y11705901D01*
X6696593Y11462677D01*
X7386453Y11485164D01*
X7919359Y11705901D01*
X8030263Y11983132D01*
X7974872Y12038523D01*
X8154634Y12217971D01*
X8209868Y12162737D01*
X8487099Y12273641D01*
X8713416Y12874694D01*
X11813410Y12874694D01*
X11839421Y12274542D01*
X12019047Y11840884D01*
X12272940Y11757545D01*
X12324622Y11809227D01*
X12504070Y11629465D01*
X12452545Y11577940D01*
X12535884Y11324047D01*
X13100306Y11118410D01*
X13700458Y11144421D01*
X14134116Y11324047D01*
X14217455Y11577940D01*
X14165773Y11629622D01*
X14345535Y11809070D01*
X14397060Y11757545D01*
X14650953Y11840884D01*
X14856590Y12405306D01*
X14830579Y13005458D01*
X14650953Y13439116D01*
X14397060Y13522455D01*
X14345378Y13470773D01*
X14165930Y13650535D01*
X14217455Y13702060D01*
X14134116Y13955953D01*
X13569694Y14161590D01*
X12969542Y14135579D01*
X12535884Y13955953D01*
X12452545Y13702060D01*
X12504227Y13650378D01*
X12324465Y13470930D01*
X12272940Y13522455D01*
X12019047Y13439116D01*
X11813410Y12874694D01*
X8713416Y12874694D01*
X8730323Y12919593D01*
X8707836Y13609453D01*
X8487099Y14142359D01*
X8209868Y14253263D01*
X8154477Y14197872D01*
X7975029Y14377634D01*
X8030263Y14432868D01*
X7919359Y14710099D01*
X7273407Y14953323D01*
X6583547Y14930836D01*
X6050641Y14710099D01*
X5939737Y14432868D01*
X5995128Y14377477D01*
X5815366Y14198029D01*
X5760132Y14253263D01*
X5482901Y14142359D01*
X5290236Y13630680D01*
X5117360Y13630680D01*
X5117360Y14244982D01*
X5319264Y14328613D01*
X5417927Y14595468D01*
X5364161Y14649234D01*
X5543923Y14828682D01*
X5597532Y14775073D01*
X5864387Y14873736D01*
X6090908Y15483461D01*
X6066856Y16133460D01*
X5864387Y16622264D01*
X5597532Y16720927D01*
X5543766Y16667161D01*
X5364318Y16846923D01*
X5417927Y16900532D01*
X5319264Y17167387D01*
X4709539Y17393908D01*
X4059540Y17369856D01*
X3570736Y17167387D01*
X3472073Y16900532D01*
X3525839Y16846766D01*
X3346077Y16667318D01*
X3292468Y16720927D01*
X3025613Y16622264D01*
X2857843Y16170680D01*
X528600Y16170680D01*
X528600Y17303356D01*
X680132Y17242737D01*
X735523Y17298128D01*
X914971Y17118366D01*
X859737Y17063132D01*
X970641Y16785901D01*
X1616593Y16542677D01*
X2306453Y16565164D01*
X2839359Y16785901D01*
X2950263Y17063132D01*
X2894872Y17118523D01*
X3074634Y17297971D01*
X3129868Y17242737D01*
X3407099Y17353641D01*
X3596511Y17856680D01*
X5274535Y17856680D01*
X5482901Y17353641D01*
X5760132Y17242737D01*
X5815523Y17298128D01*
X5994971Y17118366D01*
X5939737Y17063132D01*
X6050641Y16785901D01*
X6443941Y16637809D01*
X6433000Y16582803D01*
X6475018Y16371561D01*
X6594677Y16192480D01*
X6773758Y16072821D01*
X6985000Y16030803D01*
X7196242Y16072821D01*
X7375323Y16192480D01*
X7430183Y16247340D01*
X7549842Y16426421D01*
X7591860Y16637663D01*
X7589548Y16649289D01*
X7919359Y16785901D01*
X8030263Y17063132D01*
X7974872Y17118523D01*
X8154634Y17297971D01*
X8209868Y17242737D01*
X8487099Y17353641D01*
X8730323Y17999593D01*
X8707836Y18689453D01*
X8487099Y19222359D01*
X8209868Y19333263D01*
X8154477Y19277872D01*
X7975029Y19457634D01*
X8030263Y19512868D01*
X7919359Y19790099D01*
X7273407Y20033323D01*
X6583547Y20010836D01*
X6050641Y19790099D01*
X5939737Y19512868D01*
X5995128Y19457477D01*
X5815366Y19278029D01*
X5760132Y19333263D01*
X5482901Y19222359D01*
X5290236Y18710680D01*
X3619043Y18710680D01*
X3407099Y19222359D01*
X3129868Y19333263D01*
X3074477Y19277872D01*
X2895029Y19457634D01*
X2950263Y19512868D01*
X2839359Y19790099D01*
X2193407Y20033323D01*
X1503547Y20010836D01*
X970641Y19790099D01*
X859737Y19512868D01*
X915128Y19457477D01*
X735366Y19278029D01*
X680132Y19333263D01*
X528600Y19272644D01*
X528600Y23198782D01*
X529901Y23195641D01*
X807132Y23084737D01*
X862523Y23140128D01*
X1041971Y22960366D01*
X986737Y22905132D01*
X1097641Y22627901D01*
X1743593Y22384677D01*
X2433453Y22407164D01*
X2966359Y22627901D01*
X3077263Y22905132D01*
X3021872Y22960523D01*
X3201634Y23139971D01*
X3256868Y23084737D01*
X3534099Y23195641D01*
X3716338Y23679630D01*
X5409426Y23679630D01*
X5609901Y23195641D01*
X5887132Y23084737D01*
X5942523Y23140128D01*
X6121971Y22960366D01*
X6066737Y22905132D01*
X6177641Y22627901D01*
X6823593Y22384677D01*
X7513453Y22407164D01*
X8046359Y22627901D01*
X8157263Y22905132D01*
X8101872Y22960523D01*
X8281634Y23139971D01*
X8336868Y23084737D01*
X8614099Y23195641D01*
X8857323Y23841593D01*
X8834836Y24531453D01*
X8614099Y25064359D01*
X8336868Y25175263D01*
X8281477Y25119872D01*
X8102029Y25299634D01*
X8157263Y25354868D01*
X8046359Y25632099D01*
X7400407Y25875323D01*
X6710547Y25852836D01*
X6177641Y25632099D01*
X6066737Y25354868D01*
X6122128Y25299477D01*
X5942366Y25120029D01*
X5887132Y25175263D01*
X5609901Y25064359D01*
X5410063Y24533630D01*
X3753934Y24533630D01*
X3534099Y25064359D01*
X3256868Y25175263D01*
X3201477Y25119872D01*
X3022029Y25299634D01*
X3077263Y25354868D01*
X2966359Y25632099D01*
X2320407Y25875323D01*
X1630547Y25852836D01*
X1097641Y25632099D01*
X986737Y25354868D01*
X1042128Y25299477D01*
X862366Y25120029D01*
X807132Y25175263D01*
X529901Y25064359D01*
X528600Y25060904D01*
X528600Y26219630D01*
X2977031Y26219630D01*
X3152613Y25795736D01*
X3419468Y25697073D01*
X3473234Y25750839D01*
X3652682Y25571077D01*
X3599073Y25517468D01*
X3697736Y25250613D01*
X4307461Y25024092D01*
X4957460Y25048144D01*
X5446264Y25250613D01*
X5544927Y25517468D01*
X5491161Y25571234D01*
X5670923Y25750682D01*
X5724532Y25697073D01*
X5991387Y25795736D01*
X6217908Y26405461D01*
X6193856Y27055460D01*
X5991387Y27544264D01*
X5724532Y27642927D01*
X5670766Y27589161D01*
X5491318Y27768923D01*
X5544927Y27822532D01*
X5446264Y28089387D01*
X4836539Y28315908D01*
X4186540Y28291856D01*
X3697736Y28089387D01*
X3599073Y27822532D01*
X3652839Y27768766D01*
X3473077Y27589318D01*
X3419468Y27642927D01*
X3152613Y27544264D01*
X2977766Y27073630D01*
X528600Y27073630D01*
X528600Y28278782D01*
X529901Y28275641D01*
X807132Y28164737D01*
X862523Y28220128D01*
X1041971Y28040366D01*
X986737Y27985132D01*
X1097641Y27707901D01*
X1743593Y27464677D01*
X2433453Y27487164D01*
X2966359Y27707901D01*
X3077263Y27985132D01*
X3021872Y28040523D01*
X3201634Y28219971D01*
X3256868Y28164737D01*
X3534099Y28275641D01*
X3716338Y28759630D01*
X5409426Y28759630D01*
X5609901Y28275641D01*
X5887132Y28164737D01*
X5942523Y28220128D01*
X6121971Y28040366D01*
X6066737Y27985132D01*
X6177641Y27707901D01*
X6823593Y27464677D01*
X7513453Y27487164D01*
X8046359Y27707901D01*
X8157263Y27985132D01*
X8101872Y28040523D01*
X8281634Y28219971D01*
X8336868Y28164737D01*
X8614099Y28275641D01*
X8796338Y28759630D01*
X11959445Y28759630D01*
X12079047Y28470884D01*
X12332940Y28387545D01*
X12384622Y28439227D01*
X12564070Y28259465D01*
X12512545Y28207940D01*
X12595884Y27954047D01*
X13160306Y27748410D01*
X13760458Y27774421D01*
X14194116Y27954047D01*
X14277455Y28207940D01*
X14225773Y28259622D01*
X14405535Y28439070D01*
X14457060Y28387545D01*
X14710953Y28470884D01*
X14916590Y29035306D01*
X14890579Y29635458D01*
X14710953Y30069116D01*
X14457060Y30152455D01*
X14405378Y30100773D01*
X14225930Y30280535D01*
X14277455Y30332060D01*
X14194116Y30585953D01*
X13629694Y30791590D01*
X13029542Y30765579D01*
X12595884Y30585953D01*
X12512545Y30332060D01*
X12564227Y30280378D01*
X12384465Y30100930D01*
X12332940Y30152455D01*
X12079047Y30069116D01*
X11913099Y29613630D01*
X8833934Y29613630D01*
X8614099Y30144359D01*
X8336868Y30255263D01*
X8281477Y30199872D01*
X8102029Y30379634D01*
X8157263Y30434868D01*
X8046359Y30712099D01*
X7400407Y30955323D01*
X6710547Y30932836D01*
X6177641Y30712099D01*
X6066737Y30434868D01*
X6122128Y30379477D01*
X5942366Y30200029D01*
X5887132Y30255263D01*
X5609901Y30144359D01*
X5410063Y29613630D01*
X3753934Y29613630D01*
X3534099Y30144359D01*
X3256868Y30255263D01*
X3201477Y30199872D01*
X3022029Y30379634D01*
X3077263Y30434868D01*
X2966359Y30712099D01*
X2320407Y30955323D01*
X1630547Y30932836D01*
X1097641Y30712099D01*
X986737Y30434868D01*
X1042128Y30379477D01*
X862366Y30200029D01*
X807132Y30255263D01*
X529901Y30144359D01*
X528600Y30140904D01*
X528600Y37004694D01*
X11873410Y37004694D01*
X11899421Y36404542D01*
X12079047Y35970884D01*
X12332940Y35887545D01*
X12384622Y35939227D01*
X12564070Y35759465D01*
X12512545Y35707940D01*
X12595884Y35454047D01*
X13160306Y35248410D01*
X13760458Y35274421D01*
X14194116Y35454047D01*
X14277455Y35707940D01*
X14225773Y35759622D01*
X14405535Y35939070D01*
X14457060Y35887545D01*
X14710953Y35970884D01*
X14916590Y36535306D01*
X14890579Y37135458D01*
X14710953Y37569116D01*
X14457060Y37652455D01*
X14405378Y37600773D01*
X14225930Y37780535D01*
X14277455Y37832060D01*
X14194116Y38085953D01*
X13629694Y38291590D01*
X13029542Y38265579D01*
X12595884Y38085953D01*
X12512545Y37832060D01*
X12564227Y37780378D01*
X12384465Y37600930D01*
X12332940Y37652455D01*
X12079047Y37569116D01*
X11873410Y37004694D01*
X528600Y37004694D01*
X528600Y38788570D01*
X12179050Y38788570D01*
X12342456Y38821073D01*
X12480985Y38913635D01*
X12573547Y39052164D01*
X12606050Y39215570D01*
X12573547Y39378976D01*
X12480985Y39517505D01*
X12342456Y39610067D01*
X12179050Y39642570D01*
X528600Y39642570D01*
X528600Y40771290D01*
X24471350Y40771290D01*
X24471350Y32150050D01*
X24471350Y32150050D01*
G37*
X24471350Y32150050D02*
X24511587Y31947764D01*
X24626173Y31776273D01*
X24797664Y31661687D01*
X24892000Y31642922D01*
X24892000Y14223781D01*
X24687983Y14428154D01*
X24307127Y14586299D01*
X23894742Y14586659D01*
X23513610Y14429179D01*
X23221756Y14137833D01*
X23063611Y13756977D01*
X23063251Y13344592D01*
X23220731Y12963460D01*
X23512077Y12671606D01*
X23892933Y12513461D01*
X24305318Y12513101D01*
X24686450Y12670581D01*
X24892000Y12875773D01*
X24892000Y9657228D01*
X24797664Y9638463D01*
X24626173Y9523877D01*
X24511587Y9352386D01*
X24471350Y9150100D01*
X24471350Y918888D01*
X24390350Y935000D01*
X609600Y935000D01*
X528600Y918888D01*
X528600Y12223356D01*
X680132Y12162737D01*
X735523Y12218128D01*
X914971Y12038366D01*
X859737Y11983132D01*
X970641Y11705901D01*
X1616593Y11462677D01*
X2306453Y11485164D01*
X2839359Y11705901D01*
X2950263Y11983132D01*
X2894872Y12038523D01*
X3074634Y12217971D01*
X3129868Y12162737D01*
X3407099Y12273641D01*
X3650323Y12919593D01*
X3627836Y13609453D01*
X3407099Y14142359D01*
X3129868Y14253263D01*
X3074477Y14197872D01*
X2895029Y14377634D01*
X2950263Y14432868D01*
X2839359Y14710099D01*
X2193407Y14953323D01*
X1503547Y14930836D01*
X970641Y14710099D01*
X859737Y14432868D01*
X915128Y14377477D01*
X735366Y14198029D01*
X680132Y14253263D01*
X528600Y14192644D01*
X528600Y15316680D01*
X2842140Y15316680D01*
X3025613Y14873736D01*
X3292468Y14775073D01*
X3346234Y14828839D01*
X3525682Y14649077D01*
X3472073Y14595468D01*
X3570736Y14328613D01*
X3882360Y14212841D01*
X3882360Y6424991D01*
X3837301Y6406327D01*
X3658673Y6227698D01*
X3562000Y5994309D01*
X3562000Y5553750D01*
X3720750Y5395000D01*
X3761635Y5395000D01*
X3761635Y5141000D01*
X3720750Y5141000D01*
X3562000Y4982250D01*
X3562000Y4541691D01*
X3654656Y4318000D01*
X3562000Y4094309D01*
X3562000Y3653750D01*
X3720750Y3495000D01*
X3761635Y3495000D01*
X3761635Y3241000D01*
X3720750Y3241000D01*
X3562000Y3082250D01*
X3562000Y2641691D01*
X3658673Y2408302D01*
X3837301Y2229673D01*
X4070690Y2133000D01*
X4286250Y2133000D01*
X4445000Y2291750D01*
X4445000Y2332635D01*
X4699000Y2332635D01*
X4699000Y2291750D01*
X4857750Y2133000D01*
X5073310Y2133000D01*
X5306699Y2229673D01*
X5485327Y2408302D01*
X5582000Y2641691D01*
X5582000Y2655847D01*
X6866567Y2635494D01*
X6960673Y2408302D01*
X7139301Y2229673D01*
X7372690Y2133000D01*
X7588250Y2133000D01*
X7747000Y2291750D01*
X7747000Y2332635D01*
X8001000Y2332635D01*
X8001000Y2291750D01*
X8159750Y2133000D01*
X8375310Y2133000D01*
X8608699Y2229673D01*
X8787327Y2408302D01*
X8876270Y2623030D01*
X15490440Y2623030D01*
X15726747Y2670034D01*
X15783208Y2707760D01*
X15897771Y2730548D01*
X16076853Y2850207D01*
X16196512Y3029289D01*
X16207446Y3084260D01*
X17581638Y4458451D01*
X17715496Y4658783D01*
X17726098Y4712083D01*
X17762500Y4895090D01*
X17762500Y7523672D01*
X17884116Y7574047D01*
X17967455Y7827940D01*
X17915773Y7879622D01*
X18095535Y8059070D01*
X18147060Y8007545D01*
X18400953Y8090884D01*
X18606590Y8655306D01*
X18580579Y9255458D01*
X18491547Y9470402D01*
X18530495Y9528691D01*
X18537305Y9562928D01*
X18638212Y9630840D01*
X18677071Y9669959D01*
X18743108Y9769507D01*
X18777914Y9821597D01*
X18933679Y9977362D01*
X18933681Y9977365D01*
X21769588Y12813271D01*
X21903446Y13013602D01*
X21941254Y13203680D01*
X21950450Y13249910D01*
X21950450Y18287267D01*
X22067143Y18335603D01*
X22136608Y18577787D01*
X22086870Y18627525D01*
X22266631Y18806974D01*
X22316213Y18757392D01*
X22558397Y18826857D01*
X22745144Y19350302D01*
X22717362Y19905368D01*
X22558397Y20289143D01*
X22316213Y20358608D01*
X22266475Y20308870D01*
X22087026Y20488631D01*
X22136608Y20538213D01*
X22067143Y20780397D01*
X21943656Y20824453D01*
X22067143Y20875603D01*
X22136608Y21117787D01*
X22086870Y21167525D01*
X22266631Y21346974D01*
X22316213Y21297392D01*
X22558397Y21366857D01*
X22745144Y21890302D01*
X22717362Y22445368D01*
X22558397Y22829143D01*
X22316213Y22898608D01*
X22266475Y22848870D01*
X22087026Y23028631D01*
X22136608Y23078213D01*
X22067143Y23320397D01*
X21943656Y23364453D01*
X22067143Y23415603D01*
X22136608Y23657787D01*
X22086870Y23707525D01*
X22266631Y23886974D01*
X22316213Y23837392D01*
X22558397Y23906857D01*
X22745144Y24430302D01*
X22717362Y24985368D01*
X22558397Y25369143D01*
X22316213Y25438608D01*
X22266475Y25388870D01*
X22087026Y25568631D01*
X22136608Y25618213D01*
X22067143Y25860397D01*
X21943656Y25904453D01*
X22067143Y25955603D01*
X22136608Y26197787D01*
X22086870Y26247525D01*
X22266631Y26426974D01*
X22316213Y26377392D01*
X22558397Y26446857D01*
X22745144Y26970302D01*
X22717362Y27525368D01*
X22558397Y27909143D01*
X22316213Y27978608D01*
X22266475Y27928870D01*
X22087026Y28108631D01*
X22136608Y28158213D01*
X22067143Y28400397D01*
X21543698Y28587144D01*
X20988632Y28559362D01*
X20604857Y28400397D01*
X20535392Y28158213D01*
X20585130Y28108475D01*
X20405369Y27929026D01*
X20355787Y27978608D01*
X20113603Y27909143D01*
X19926856Y27385698D01*
X19954638Y26830632D01*
X20113603Y26446857D01*
X20355787Y26377392D01*
X20405525Y26427130D01*
X20584974Y26247369D01*
X20535392Y26197787D01*
X20604857Y25955603D01*
X20728344Y25911547D01*
X20604857Y25860397D01*
X20535392Y25618213D01*
X20585130Y25568475D01*
X20405369Y25389026D01*
X20355787Y25438608D01*
X20113603Y25369143D01*
X20020682Y25108690D01*
X18975600Y25108690D01*
X18975600Y30944762D01*
X21863351Y30944762D01*
X22020831Y30563630D01*
X22312177Y30271776D01*
X22693033Y30113631D01*
X23105418Y30113271D01*
X23486550Y30270751D01*
X23778404Y30562097D01*
X23936549Y30942953D01*
X23936909Y31355338D01*
X23779429Y31736470D01*
X23488083Y32028324D01*
X23107227Y32186469D01*
X22694842Y32186829D01*
X22313710Y32029349D01*
X22021856Y31738003D01*
X21863711Y31357147D01*
X21863351Y30944762D01*
X18975600Y30944762D01*
X18975600Y31806900D01*
X18936394Y32004002D01*
X18928596Y32043208D01*
X18794738Y32243539D01*
X18556137Y32482140D01*
X18666590Y32785306D01*
X18640579Y33385458D01*
X18460953Y33819116D01*
X18207060Y33902455D01*
X18155378Y33850773D01*
X17975930Y34030535D01*
X18027455Y34082060D01*
X17944116Y34335953D01*
X17379694Y34541590D01*
X16779542Y34515579D01*
X16345884Y34335953D01*
X16262545Y34082060D01*
X16314227Y34030378D01*
X16134465Y33850930D01*
X16082940Y33902455D01*
X15829047Y33819116D01*
X15623410Y33254694D01*
X15649421Y32654542D01*
X15829047Y32220884D01*
X16082940Y32137545D01*
X16134622Y32189227D01*
X16314070Y32009465D01*
X16262545Y31957940D01*
X16345884Y31704047D01*
X16910306Y31498410D01*
X17510458Y31524421D01*
X17692075Y31599649D01*
X17740600Y31551123D01*
X17740600Y24616406D01*
X16645200Y23521000D01*
X16541750Y23521000D01*
X16383000Y23362250D01*
X16383000Y23321365D01*
X16129000Y23321365D01*
X16129000Y23362250D01*
X15970250Y23521000D01*
X15754690Y23521000D01*
X15521301Y23424327D01*
X15342673Y23245698D01*
X15246000Y23012309D01*
X15246000Y22819890D01*
X13329000Y22819890D01*
X13329000Y23139309D01*
X13232327Y23372698D01*
X13053699Y23551327D01*
X12820310Y23648000D01*
X12604750Y23648000D01*
X12446000Y23489250D01*
X12446000Y23448365D01*
X12192000Y23448365D01*
X12192000Y23489250D01*
X12033250Y23648000D01*
X11817690Y23648000D01*
X11584301Y23551327D01*
X11405673Y23372698D01*
X11309000Y23139309D01*
X11309000Y22698750D01*
X11467750Y22540000D01*
X11508635Y22540000D01*
X11508635Y22286000D01*
X11467750Y22286000D01*
X11309000Y22127250D01*
X11309000Y21686691D01*
X11401656Y21463000D01*
X11309000Y21239309D01*
X11309000Y20798750D01*
X11467750Y20640000D01*
X11508635Y20640000D01*
X11508635Y20386000D01*
X11467750Y20386000D01*
X11309000Y20227250D01*
X11309000Y19786691D01*
X11405673Y19553302D01*
X11421508Y19537467D01*
X11263531Y19157017D01*
X11263171Y18744632D01*
X11420651Y18363500D01*
X11711997Y18071646D01*
X12092853Y17913501D01*
X12505238Y17913141D01*
X12886370Y18070621D01*
X13178224Y18361967D01*
X13336369Y18742823D01*
X13336729Y19155208D01*
X13189809Y19510783D01*
X13232327Y19553302D01*
X13260116Y19620390D01*
X15262279Y19620390D01*
X15309012Y19507567D01*
X15163451Y19157017D01*
X15163091Y18744632D01*
X15320571Y18363500D01*
X15611917Y18071646D01*
X15992773Y17913501D01*
X16405158Y17913141D01*
X16786290Y18070621D01*
X17078144Y18361967D01*
X17236289Y18742823D01*
X17236649Y19155208D01*
X17137703Y19394677D01*
X17169327Y19426302D01*
X17266000Y19659691D01*
X17266000Y20100250D01*
X17107250Y20259000D01*
X17066365Y20259000D01*
X17066365Y20513000D01*
X17107250Y20513000D01*
X17266000Y20671750D01*
X17266000Y20751677D01*
X18863302Y19154381D01*
X18983392Y19074140D01*
X19063633Y19020524D01*
X19299940Y18973520D01*
X19599660Y18973520D01*
X19602689Y18974123D01*
X19605723Y18973550D01*
X20051029Y18977923D01*
X20113603Y18826857D01*
X20355787Y18757392D01*
X20405525Y18807130D01*
X20584974Y18627369D01*
X20535392Y18577787D01*
X20604857Y18335603D01*
X20715450Y18296147D01*
X20715450Y13505687D01*
X18060405Y10850641D01*
X18060402Y10850639D01*
X17540799Y10331035D01*
X17319694Y10411590D01*
X16719542Y10385579D01*
X16285884Y10205953D01*
X16202545Y9952060D01*
X16254227Y9900378D01*
X16074465Y9720930D01*
X16022940Y9772455D01*
X15769047Y9689116D01*
X15563410Y9124694D01*
X15589421Y8524542D01*
X15769047Y8090884D01*
X16022940Y8007545D01*
X16074622Y8059227D01*
X16254070Y7879465D01*
X16202545Y7827940D01*
X16285884Y7574047D01*
X16498528Y7496574D01*
X16514504Y7416257D01*
X16527500Y7396807D01*
X16527500Y5150867D01*
X15234664Y3858030D01*
X14145271Y3858030D01*
X14217455Y4077940D01*
X14165773Y4129622D01*
X14345535Y4309070D01*
X14397060Y4257545D01*
X14650953Y4340884D01*
X14856590Y4905306D01*
X14830579Y5505458D01*
X14650953Y5939116D01*
X14397060Y6022455D01*
X14345378Y5970773D01*
X14165930Y6150535D01*
X14217455Y6202060D01*
X14134116Y6455953D01*
X13569694Y6661590D01*
X12969542Y6635579D01*
X12535884Y6455953D01*
X12452545Y6202060D01*
X12504227Y6150378D01*
X12324465Y5970930D01*
X12272940Y6022455D01*
X12019047Y5939116D01*
X11943530Y5731840D01*
X8884000Y5754120D01*
X8884000Y5994309D01*
X8787327Y6227698D01*
X8608699Y6406327D01*
X8375310Y6503000D01*
X8159750Y6503000D01*
X8001000Y6344250D01*
X8001000Y6303365D01*
X7747000Y6303365D01*
X7747000Y6344250D01*
X7588250Y6503000D01*
X7372690Y6503000D01*
X7139301Y6406327D01*
X6960673Y6227698D01*
X6864000Y5994309D01*
X6864000Y5775690D01*
X5813441Y5792335D01*
X5818305Y5795585D01*
X5910867Y5934114D01*
X5943370Y6097520D01*
X5910867Y6260926D01*
X5818305Y6399455D01*
X5679776Y6492017D01*
X5516370Y6524520D01*
X5117360Y6524520D01*
X5117360Y12776680D01*
X5274535Y12776680D01*
X5482901Y12273641D01*
X5760132Y12162737D01*
X5815523Y12218128D01*
X5994971Y12038366D01*
X5939737Y11983132D01*
X6050641Y11705901D01*
X6696593Y11462677D01*
X7386453Y11485164D01*
X7919359Y11705901D01*
X8030263Y11983132D01*
X7974872Y12038523D01*
X8154634Y12217971D01*
X8209868Y12162737D01*
X8487099Y12273641D01*
X8713416Y12874694D01*
X11813410Y12874694D01*
X11839421Y12274542D01*
X12019047Y11840884D01*
X12272940Y11757545D01*
X12324622Y11809227D01*
X12504070Y11629465D01*
X12452545Y11577940D01*
X12535884Y11324047D01*
X13100306Y11118410D01*
X13700458Y11144421D01*
X14134116Y11324047D01*
X14217455Y11577940D01*
X14165773Y11629622D01*
X14345535Y11809070D01*
X14397060Y11757545D01*
X14650953Y11840884D01*
X14856590Y12405306D01*
X14830579Y13005458D01*
X14650953Y13439116D01*
X14397060Y13522455D01*
X14345378Y13470773D01*
X14165930Y13650535D01*
X14217455Y13702060D01*
X14134116Y13955953D01*
X13569694Y14161590D01*
X12969542Y14135579D01*
X12535884Y13955953D01*
X12452545Y13702060D01*
X12504227Y13650378D01*
X12324465Y13470930D01*
X12272940Y13522455D01*
X12019047Y13439116D01*
X11813410Y12874694D01*
X8713416Y12874694D01*
X8730323Y12919593D01*
X8707836Y13609453D01*
X8487099Y14142359D01*
X8209868Y14253263D01*
X8154477Y14197872D01*
X7975029Y14377634D01*
X8030263Y14432868D01*
X7919359Y14710099D01*
X7273407Y14953323D01*
X6583547Y14930836D01*
X6050641Y14710099D01*
X5939737Y14432868D01*
X5995128Y14377477D01*
X5815366Y14198029D01*
X5760132Y14253263D01*
X5482901Y14142359D01*
X5290236Y13630680D01*
X5117360Y13630680D01*
X5117360Y14244982D01*
X5319264Y14328613D01*
X5417927Y14595468D01*
X5364161Y14649234D01*
X5543923Y14828682D01*
X5597532Y14775073D01*
X5864387Y14873736D01*
X6090908Y15483461D01*
X6066856Y16133460D01*
X5864387Y16622264D01*
X5597532Y16720927D01*
X5543766Y16667161D01*
X5364318Y16846923D01*
X5417927Y16900532D01*
X5319264Y17167387D01*
X4709539Y17393908D01*
X4059540Y17369856D01*
X3570736Y17167387D01*
X3472073Y16900532D01*
X3525839Y16846766D01*
X3346077Y16667318D01*
X3292468Y16720927D01*
X3025613Y16622264D01*
X2857843Y16170680D01*
X528600Y16170680D01*
X528600Y17303356D01*
X680132Y17242737D01*
X735523Y17298128D01*
X914971Y17118366D01*
X859737Y17063132D01*
X970641Y16785901D01*
X1616593Y16542677D01*
X2306453Y16565164D01*
X2839359Y16785901D01*
X2950263Y17063132D01*
X2894872Y17118523D01*
X3074634Y17297971D01*
X3129868Y17242737D01*
X3407099Y17353641D01*
X3596511Y17856680D01*
X5274535Y17856680D01*
X5482901Y17353641D01*
X5760132Y17242737D01*
X5815523Y17298128D01*
X5994971Y17118366D01*
X5939737Y17063132D01*
X6050641Y16785901D01*
X6443941Y16637809D01*
X6433000Y16582803D01*
X6475018Y16371561D01*
X6594677Y16192480D01*
X6773758Y16072821D01*
X6985000Y16030803D01*
X7196242Y16072821D01*
X7375323Y16192480D01*
X7430183Y16247340D01*
X7549842Y16426421D01*
X7591860Y16637663D01*
X7589548Y16649289D01*
X7919359Y16785901D01*
X8030263Y17063132D01*
X7974872Y17118523D01*
X8154634Y17297971D01*
X8209868Y17242737D01*
X8487099Y17353641D01*
X8730323Y17999593D01*
X8707836Y18689453D01*
X8487099Y19222359D01*
X8209868Y19333263D01*
X8154477Y19277872D01*
X7975029Y19457634D01*
X8030263Y19512868D01*
X7919359Y19790099D01*
X7273407Y20033323D01*
X6583547Y20010836D01*
X6050641Y19790099D01*
X5939737Y19512868D01*
X5995128Y19457477D01*
X5815366Y19278029D01*
X5760132Y19333263D01*
X5482901Y19222359D01*
X5290236Y18710680D01*
X3619043Y18710680D01*
X3407099Y19222359D01*
X3129868Y19333263D01*
X3074477Y19277872D01*
X2895029Y19457634D01*
X2950263Y19512868D01*
X2839359Y19790099D01*
X2193407Y20033323D01*
X1503547Y20010836D01*
X970641Y19790099D01*
X859737Y19512868D01*
X915128Y19457477D01*
X735366Y19278029D01*
X680132Y19333263D01*
X528600Y19272644D01*
X528600Y23198782D01*
X529901Y23195641D01*
X807132Y23084737D01*
X862523Y23140128D01*
X1041971Y22960366D01*
X986737Y22905132D01*
X1097641Y22627901D01*
X1743593Y22384677D01*
X2433453Y22407164D01*
X2966359Y22627901D01*
X3077263Y22905132D01*
X3021872Y22960523D01*
X3201634Y23139971D01*
X3256868Y23084737D01*
X3534099Y23195641D01*
X3716338Y23679630D01*
X5409426Y23679630D01*
X5609901Y23195641D01*
X5887132Y23084737D01*
X5942523Y23140128D01*
X6121971Y22960366D01*
X6066737Y22905132D01*
X6177641Y22627901D01*
X6823593Y22384677D01*
X7513453Y22407164D01*
X8046359Y22627901D01*
X8157263Y22905132D01*
X8101872Y22960523D01*
X8281634Y23139971D01*
X8336868Y23084737D01*
X8614099Y23195641D01*
X8857323Y23841593D01*
X8834836Y24531453D01*
X8614099Y25064359D01*
X8336868Y25175263D01*
X8281477Y25119872D01*
X8102029Y25299634D01*
X8157263Y25354868D01*
X8046359Y25632099D01*
X7400407Y25875323D01*
X6710547Y25852836D01*
X6177641Y25632099D01*
X6066737Y25354868D01*
X6122128Y25299477D01*
X5942366Y25120029D01*
X5887132Y25175263D01*
X5609901Y25064359D01*
X5410063Y24533630D01*
X3753934Y24533630D01*
X3534099Y25064359D01*
X3256868Y25175263D01*
X3201477Y25119872D01*
X3022029Y25299634D01*
X3077263Y25354868D01*
X2966359Y25632099D01*
X2320407Y25875323D01*
X1630547Y25852836D01*
X1097641Y25632099D01*
X986737Y25354868D01*
X1042128Y25299477D01*
X862366Y25120029D01*
X807132Y25175263D01*
X529901Y25064359D01*
X528600Y25060904D01*
X528600Y26219630D01*
X2977031Y26219630D01*
X3152613Y25795736D01*
X3419468Y25697073D01*
X3473234Y25750839D01*
X3652682Y25571077D01*
X3599073Y25517468D01*
X3697736Y25250613D01*
X4307461Y25024092D01*
X4957460Y25048144D01*
X5446264Y25250613D01*
X5544927Y25517468D01*
X5491161Y25571234D01*
X5670923Y25750682D01*
X5724532Y25697073D01*
X5991387Y25795736D01*
X6217908Y26405461D01*
X6193856Y27055460D01*
X5991387Y27544264D01*
X5724532Y27642927D01*
X5670766Y27589161D01*
X5491318Y27768923D01*
X5544927Y27822532D01*
X5446264Y28089387D01*
X4836539Y28315908D01*
X4186540Y28291856D01*
X3697736Y28089387D01*
X3599073Y27822532D01*
X3652839Y27768766D01*
X3473077Y27589318D01*
X3419468Y27642927D01*
X3152613Y27544264D01*
X2977766Y27073630D01*
X528600Y27073630D01*
X528600Y28278782D01*
X529901Y28275641D01*
X807132Y28164737D01*
X862523Y28220128D01*
X1041971Y28040366D01*
X986737Y27985132D01*
X1097641Y27707901D01*
X1743593Y27464677D01*
X2433453Y27487164D01*
X2966359Y27707901D01*
X3077263Y27985132D01*
X3021872Y28040523D01*
X3201634Y28219971D01*
X3256868Y28164737D01*
X3534099Y28275641D01*
X3716338Y28759630D01*
X5409426Y28759630D01*
X5609901Y28275641D01*
X5887132Y28164737D01*
X5942523Y28220128D01*
X6121971Y28040366D01*
X6066737Y27985132D01*
X6177641Y27707901D01*
X6823593Y27464677D01*
X7513453Y27487164D01*
X8046359Y27707901D01*
X8157263Y27985132D01*
X8101872Y28040523D01*
X8281634Y28219971D01*
X8336868Y28164737D01*
X8614099Y28275641D01*
X8796338Y28759630D01*
X11959445Y28759630D01*
X12079047Y28470884D01*
X12332940Y28387545D01*
X12384622Y28439227D01*
X12564070Y28259465D01*
X12512545Y28207940D01*
X12595884Y27954047D01*
X13160306Y27748410D01*
X13760458Y27774421D01*
X14194116Y27954047D01*
X14277455Y28207940D01*
X14225773Y28259622D01*
X14405535Y28439070D01*
X14457060Y28387545D01*
X14710953Y28470884D01*
X14916590Y29035306D01*
X14890579Y29635458D01*
X14710953Y30069116D01*
X14457060Y30152455D01*
X14405378Y30100773D01*
X14225930Y30280535D01*
X14277455Y30332060D01*
X14194116Y30585953D01*
X13629694Y30791590D01*
X13029542Y30765579D01*
X12595884Y30585953D01*
X12512545Y30332060D01*
X12564227Y30280378D01*
X12384465Y30100930D01*
X12332940Y30152455D01*
X12079047Y30069116D01*
X11913099Y29613630D01*
X8833934Y29613630D01*
X8614099Y30144359D01*
X8336868Y30255263D01*
X8281477Y30199872D01*
X8102029Y30379634D01*
X8157263Y30434868D01*
X8046359Y30712099D01*
X7400407Y30955323D01*
X6710547Y30932836D01*
X6177641Y30712099D01*
X6066737Y30434868D01*
X6122128Y30379477D01*
X5942366Y30200029D01*
X5887132Y30255263D01*
X5609901Y30144359D01*
X5410063Y29613630D01*
X3753934Y29613630D01*
X3534099Y30144359D01*
X3256868Y30255263D01*
X3201477Y30199872D01*
X3022029Y30379634D01*
X3077263Y30434868D01*
X2966359Y30712099D01*
X2320407Y30955323D01*
X1630547Y30932836D01*
X1097641Y30712099D01*
X986737Y30434868D01*
X1042128Y30379477D01*
X862366Y30200029D01*
X807132Y30255263D01*
X529901Y30144359D01*
X528600Y30140904D01*
X528600Y37004694D01*
X11873410Y37004694D01*
X11899421Y36404542D01*
X12079047Y35970884D01*
X12332940Y35887545D01*
X12384622Y35939227D01*
X12564070Y35759465D01*
X12512545Y35707940D01*
X12595884Y35454047D01*
X13160306Y35248410D01*
X13760458Y35274421D01*
X14194116Y35454047D01*
X14277455Y35707940D01*
X14225773Y35759622D01*
X14405535Y35939070D01*
X14457060Y35887545D01*
X14710953Y35970884D01*
X14916590Y36535306D01*
X14890579Y37135458D01*
X14710953Y37569116D01*
X14457060Y37652455D01*
X14405378Y37600773D01*
X14225930Y37780535D01*
X14277455Y37832060D01*
X14194116Y38085953D01*
X13629694Y38291590D01*
X13029542Y38265579D01*
X12595884Y38085953D01*
X12512545Y37832060D01*
X12564227Y37780378D01*
X12384465Y37600930D01*
X12332940Y37652455D01*
X12079047Y37569116D01*
X11873410Y37004694D01*
X528600Y37004694D01*
X528600Y38788570D01*
X12179050Y38788570D01*
X12342456Y38821073D01*
X12480985Y38913635D01*
X12573547Y39052164D01*
X12606050Y39215570D01*
X12573547Y39378976D01*
X12480985Y39517505D01*
X12342456Y39610067D01*
X12179050Y39642570D01*
X528600Y39642570D01*
X528600Y40771290D01*
X24471350Y40771290D01*
X24471350Y32150050D01*
G36*
X11954495Y4496727D02*
X12019047Y4340884D01*
X12272940Y4257545D01*
X12324622Y4309227D01*
X12504070Y4129465D01*
X12452545Y4077940D01*
X12524729Y3858030D01*
X8884000Y3858030D01*
X8884000Y4094309D01*
X8791344Y4318000D01*
X8874665Y4519154D01*
X11954495Y4496727D01*
X11954495Y4496727D01*
G37*
X11954495Y4496727D02*
X12019047Y4340884D01*
X12272940Y4257545D01*
X12324622Y4309227D01*
X12504070Y4129465D01*
X12452545Y4077940D01*
X12524729Y3858030D01*
X8884000Y3858030D01*
X8884000Y4094309D01*
X8791344Y4318000D01*
X8874665Y4519154D01*
X11954495Y4496727D01*
G36*
X6864482Y4540527D02*
X6956656Y4318000D01*
X6864000Y4094309D01*
X6864000Y3870690D01*
X5582000Y3891002D01*
X5582000Y4094309D01*
X5489344Y4318000D01*
X5582000Y4541691D01*
X5582000Y4560847D01*
X6864482Y4540527D01*
X6864482Y4540527D01*
G37*
X6864482Y4540527D02*
X6956656Y4318000D01*
X6864000Y4094309D01*
X6864000Y3870690D01*
X5582000Y3891002D01*
X5582000Y4094309D01*
X5489344Y4318000D01*
X5582000Y4541691D01*
X5582000Y4560847D01*
X6864482Y4540527D01*
G36*
X20113603Y23906857D02*
X20355787Y23837392D01*
X20405525Y23887130D01*
X20584974Y23707369D01*
X20535392Y23657787D01*
X20604857Y23415603D01*
X20728344Y23371547D01*
X20604857Y23320397D01*
X20535392Y23078213D01*
X20585130Y23028475D01*
X20405369Y22849026D01*
X20355787Y22898608D01*
X20113603Y22829143D01*
X19926856Y22305698D01*
X19954638Y21750632D01*
X20113603Y21366857D01*
X20355787Y21297392D01*
X20405525Y21347130D01*
X20584974Y21167369D01*
X20535392Y21117787D01*
X20604857Y20875603D01*
X20728344Y20831547D01*
X20604857Y20780397D01*
X20535392Y20538213D01*
X20585130Y20488475D01*
X20405369Y20309026D01*
X20355787Y20358608D01*
X20113603Y20289143D01*
X20086556Y20213331D01*
X19879361Y20211296D01*
X19864075Y20286837D01*
X19771056Y20425060D01*
X17725336Y22457320D01*
X17725080Y22457490D01*
X17547274Y22634111D01*
X17521777Y22651025D01*
X18794739Y23923992D01*
X18874980Y24044082D01*
X18928596Y24124323D01*
X18954527Y24254690D01*
X19969526Y24254690D01*
X20113603Y23906857D01*
X20113603Y23906857D01*
G37*
X20113603Y23906857D02*
X20355787Y23837392D01*
X20405525Y23887130D01*
X20584974Y23707369D01*
X20535392Y23657787D01*
X20604857Y23415603D01*
X20728344Y23371547D01*
X20604857Y23320397D01*
X20535392Y23078213D01*
X20585130Y23028475D01*
X20405369Y22849026D01*
X20355787Y22898608D01*
X20113603Y22829143D01*
X19926856Y22305698D01*
X19954638Y21750632D01*
X20113603Y21366857D01*
X20355787Y21297392D01*
X20405525Y21347130D01*
X20584974Y21167369D01*
X20535392Y21117787D01*
X20604857Y20875603D01*
X20728344Y20831547D01*
X20604857Y20780397D01*
X20535392Y20538213D01*
X20585130Y20488475D01*
X20405369Y20309026D01*
X20355787Y20358608D01*
X20113603Y20289143D01*
X20086556Y20213331D01*
X19879361Y20211296D01*
X19864075Y20286837D01*
X19771056Y20425060D01*
X17725336Y22457320D01*
X17725080Y22457490D01*
X17547274Y22634111D01*
X17521777Y22651025D01*
X18794739Y23923992D01*
X18874980Y24044082D01*
X18928596Y24124323D01*
X18954527Y24254690D01*
X19969526Y24254690D01*
X20113603Y23906857D01*
G36*
X15246000Y21559691D02*
X15338656Y21336000D01*
X15246000Y21112309D01*
X15246000Y20974390D01*
X13329000Y20974390D01*
X13329000Y21239309D01*
X13236344Y21463000D01*
X13286833Y21584890D01*
X15246000Y21584890D01*
X15246000Y21559691D01*
X15246000Y21559691D01*
G37*
X15246000Y21559691D02*
X15338656Y21336000D01*
X15246000Y21112309D01*
X15246000Y20974390D01*
X13329000Y20974390D01*
X13329000Y21239309D01*
X13236344Y21463000D01*
X13286833Y21584890D01*
X15246000Y21584890D01*
X15246000Y21559691D01*
M02*
