G04 #@! TF.FileFunction,Soldermask,Bot*
%FSLAX46Y46*%
G04 Gerber Fmt 4.6, Leading zero omitted, Abs format (unit mm)*
G04 Created by KiCad (PCBNEW 4.0.6) date 05/23/18 19:53:49*
%MOMM*%
%LPD*%
G01*
G04 APERTURE LIST*
%ADD10C,0.100000*%
%ADD11C,0.635000*%
%ADD12C,1.346200*%
%ADD13C,0.777010*%
%ADD14C,3.126990*%
%ADD15C,0.203200*%
%ADD16C,1.924000*%
%ADD17C,2.600000*%
%ADD18C,2.400000*%
%ADD19C,2.150000*%
%ADD20R,1.150000X1.600000*%
%ADD21O,3.410000X1.910000*%
G04 APERTURE END LIST*
D10*
D11*
X73704700Y29164030D02*
X73704700Y29164030D01*
D12*
X12299950Y18949920D02*
X12299950Y18949920D01*
X16199870Y18949920D02*
X16199870Y18949920D01*
X24100030Y13549880D02*
X24100030Y13549880D01*
X22900130Y31150050D02*
X22900130Y31150050D01*
X53710080Y23360130D02*
X53710080Y23360130D01*
D13*
X61000130Y20400010D02*
X61000130Y20400010D01*
D12*
X27010110Y20360130D02*
X27010110Y20360130D01*
X67444620Y11487400D02*
X67444620Y11487400D01*
X38623750Y10348210D02*
X38623750Y10348210D01*
D14*
X32599880Y20649950D02*
X32599880Y20649950D01*
X96899980Y20649950D02*
X96899980Y20649950D01*
X96899980Y26649930D02*
X96899980Y26649930D01*
X96899980Y14649960D02*
X96899980Y14649960D01*
D12*
X89696040Y22130000D02*
X89696040Y22130000D01*
X88141050Y20278600D02*
X88141050Y20278600D01*
D14*
X32599880Y14649960D02*
X32599880Y14649960D01*
D15*
X112000030Y23649940D02*
X112000030Y17649950D01*
X112000030Y17649950D02*
X115940080Y17649950D01*
X115940080Y17649950D02*
X115940080Y23649940D01*
X115940080Y23649940D02*
X112000030Y23649940D01*
X0Y0D02*
X0Y41299890D01*
X0Y41299890D02*
X24999950Y41299890D01*
X24999950Y41299890D02*
X24999950Y32150050D01*
X24999950Y32150050D02*
X116899940Y32150050D01*
X116899940Y32150050D02*
X116899940Y9150100D01*
X116899940Y9150100D02*
X24999950Y9150100D01*
X24999950Y9150100D02*
X24999950Y0D01*
X24999950Y0D02*
X0Y0D01*
X112000030Y23649940D02*
X112000030Y17649950D01*
X112000030Y17649950D02*
X115940080Y17649950D01*
X115940080Y17649950D02*
X115940080Y23649940D01*
X115940080Y23649940D02*
X112000030Y23649940D01*
X0Y0D02*
X0Y41299890D01*
X0Y41299890D02*
X24999950Y41299890D01*
X24999950Y41299890D02*
X24999950Y32150050D01*
X24999950Y32150050D02*
X116899940Y32150050D01*
X116899940Y32150050D02*
X116899940Y9150100D01*
X116899940Y9150100D02*
X24999950Y9150100D01*
X24999950Y9150100D02*
X24999950Y0D01*
X24999950Y0D02*
X0Y0D01*
X112000030Y23649940D02*
X112000030Y17649950D01*
X112000030Y17649950D02*
X115940080Y17649950D01*
X115940080Y17649950D02*
X115940080Y23649940D01*
X115940080Y23649940D02*
X112000030Y23649940D01*
D11*
X73704700Y29164030D02*
X73704700Y29164030D01*
D12*
X12299950Y18949920D02*
X12299950Y18949920D01*
X16199870Y18949920D02*
X16199870Y18949920D01*
X24100030Y13549880D02*
X24100030Y13549880D01*
X22900130Y31150050D02*
X22900130Y31150050D01*
X53710080Y23360130D02*
X53710080Y23360130D01*
D13*
X61000130Y20400010D02*
X61000130Y20400010D01*
D12*
X27010110Y20360130D02*
X27010110Y20360130D01*
X67444620Y11487400D02*
X67444620Y11487400D01*
X38623750Y10348210D02*
X38623750Y10348210D01*
D14*
X32599880Y20649950D02*
X32599880Y20649950D01*
X96899980Y20649950D02*
X96899980Y20649950D01*
X96899980Y26649930D02*
X96899980Y26649930D01*
X96899980Y14649960D02*
X96899980Y14649960D01*
D12*
X89696040Y22130000D02*
X89696040Y22130000D01*
X88141050Y20278600D02*
X88141050Y20278600D01*
D14*
X32599880Y14649960D02*
X32599880Y14649960D01*
D15*
X112000030Y23649940D02*
X112000030Y17649950D01*
X112000030Y17649950D02*
X115940080Y17649950D01*
X115940080Y17649950D02*
X115940080Y23649940D01*
X115940080Y23649940D02*
X112000030Y23649940D01*
X0Y0D02*
X0Y41299890D01*
X0Y41299890D02*
X24999950Y41299890D01*
X24999950Y41299890D02*
X24999950Y32150050D01*
X24999950Y32150050D02*
X116899940Y32150050D01*
X116899940Y32150050D02*
X116899940Y9150100D01*
X116899940Y9150100D02*
X24999950Y9150100D01*
X24999950Y9150100D02*
X24999950Y0D01*
X24999950Y0D02*
X0Y0D01*
X112000030Y23649940D02*
X112000030Y17649950D01*
X112000030Y17649950D02*
X115940080Y17649950D01*
X115940080Y17649950D02*
X115940080Y23649940D01*
X115940080Y23649940D02*
X112000030Y23649940D01*
X0Y0D02*
X0Y41299890D01*
X0Y41299890D02*
X24999950Y41299890D01*
X24999950Y41299890D02*
X24999950Y32150050D01*
X24999950Y32150050D02*
X116899940Y32150050D01*
X116899940Y32150050D02*
X116899940Y9150100D01*
X116899940Y9150100D02*
X24999950Y9150100D01*
X24999950Y9150100D02*
X24999950Y0D01*
X24999950Y0D02*
X0Y0D01*
X112000030Y23649940D02*
X112000030Y17649950D01*
X112000030Y17649950D02*
X115940080Y17649950D01*
X115940080Y17649950D02*
X115940080Y23649940D01*
X115940080Y23649940D02*
X112000030Y23649940D01*
D16*
X21336000Y24638000D03*
X21336000Y27178000D03*
X21336000Y19558000D03*
X21336000Y22098000D03*
D17*
X2032000Y24130000D03*
X2032000Y29210000D03*
X7112000Y29210000D03*
X7112000Y24130000D03*
D18*
X4572000Y26670000D03*
D19*
X13395000Y36770000D03*
X13395000Y29270000D03*
X17145000Y33020000D03*
D17*
X1905000Y13208000D03*
X1905000Y18288000D03*
X6985000Y18288000D03*
X6985000Y13208000D03*
D18*
X4445000Y15748000D03*
D16*
X37592000Y20828000D03*
X37592000Y23368000D03*
D20*
X16256000Y22286000D03*
X16256000Y20386000D03*
X12319000Y22413000D03*
X12319000Y20513000D03*
X7874000Y5268000D03*
X7874000Y3368000D03*
X4572000Y5268000D03*
X4572000Y3368000D03*
D21*
X113665000Y12446000D03*
X113665000Y14986000D03*
D16*
X91948000Y20828000D03*
X91948000Y23368000D03*
D19*
X13335000Y12640000D03*
X13335000Y5140000D03*
X17085000Y8890000D03*
M02*
