G04 #@! TF.FileFunction,Legend,Bot*
%FSLAX46Y46*%
G04 Gerber Fmt 4.6, Leading zero omitted, Abs format (unit mm)*
G04 Created by KiCad (PCBNEW 4.0.6) date 05/23/18 19:53:49*
%MOMM*%
%LPD*%
G01*
G04 APERTURE LIST*
%ADD10C,0.100000*%
%ADD11C,0.120000*%
%ADD12C,0.150000*%
G04 APERTURE END LIST*
D10*
D11*
X15656000Y21686000D02*
X15656000Y20986000D01*
X16856000Y20986000D02*
X16856000Y21686000D01*
X11719000Y21813000D02*
X11719000Y21113000D01*
X12919000Y21113000D02*
X12919000Y21813000D01*
X7274000Y4668000D02*
X7274000Y3968000D01*
X8474000Y3968000D02*
X8474000Y4668000D01*
X3972000Y4668000D02*
X3972000Y3968000D01*
X5172000Y3968000D02*
X5172000Y4668000D01*
D12*
X15458381Y22669333D02*
X14982190Y23002667D01*
X15458381Y23240762D02*
X14458381Y23240762D01*
X14458381Y22859809D01*
X14506000Y22764571D01*
X14553619Y22716952D01*
X14648857Y22669333D01*
X14791714Y22669333D01*
X14886952Y22716952D01*
X14934571Y22764571D01*
X14982190Y22859809D01*
X14982190Y23240762D01*
X14934571Y22240762D02*
X14934571Y21907428D01*
X15458381Y21764571D02*
X15458381Y22240762D01*
X14458381Y22240762D01*
X14458381Y21764571D01*
X14934571Y21002666D02*
X14934571Y21336000D01*
X15458381Y21336000D02*
X14458381Y21336000D01*
X14458381Y20859809D01*
X14458381Y20336000D02*
X14696476Y20336000D01*
X14601238Y20574095D02*
X14696476Y20336000D01*
X14601238Y20097904D01*
X14886952Y20478857D02*
X14696476Y20336000D01*
X14886952Y20193142D01*
X14458381Y19574095D02*
X14696476Y19574095D01*
X14601238Y19812190D02*
X14696476Y19574095D01*
X14601238Y19335999D01*
X14886952Y19716952D02*
X14696476Y19574095D01*
X14886952Y19431237D01*
X11521381Y22796333D02*
X11045190Y23129667D01*
X11521381Y23367762D02*
X10521381Y23367762D01*
X10521381Y22986809D01*
X10569000Y22891571D01*
X10616619Y22843952D01*
X10711857Y22796333D01*
X10854714Y22796333D01*
X10949952Y22843952D01*
X10997571Y22891571D01*
X11045190Y22986809D01*
X11045190Y23367762D01*
X10997571Y22367762D02*
X10997571Y22034428D01*
X11521381Y21891571D02*
X11521381Y22367762D01*
X10521381Y22367762D01*
X10521381Y21891571D01*
X10997571Y21129666D02*
X10997571Y21463000D01*
X11521381Y21463000D02*
X10521381Y21463000D01*
X10521381Y20986809D01*
X10521381Y20463000D02*
X10759476Y20463000D01*
X10664238Y20701095D02*
X10759476Y20463000D01*
X10664238Y20224904D01*
X10949952Y20605857D02*
X10759476Y20463000D01*
X10949952Y20320142D01*
X10521381Y19701095D02*
X10759476Y19701095D01*
X10664238Y19939190D02*
X10759476Y19701095D01*
X10664238Y19462999D01*
X10949952Y19843952D02*
X10759476Y19701095D01*
X10949952Y19558237D01*
X7076381Y5651333D02*
X6600190Y5984667D01*
X7076381Y6222762D02*
X6076381Y6222762D01*
X6076381Y5841809D01*
X6124000Y5746571D01*
X6171619Y5698952D01*
X6266857Y5651333D01*
X6409714Y5651333D01*
X6504952Y5698952D01*
X6552571Y5746571D01*
X6600190Y5841809D01*
X6600190Y6222762D01*
X6552571Y5222762D02*
X6552571Y4889428D01*
X7076381Y4746571D02*
X7076381Y5222762D01*
X6076381Y5222762D01*
X6076381Y4746571D01*
X6552571Y3984666D02*
X6552571Y4318000D01*
X7076381Y4318000D02*
X6076381Y4318000D01*
X6076381Y3841809D01*
X6076381Y3318000D02*
X6314476Y3318000D01*
X6219238Y3556095D02*
X6314476Y3318000D01*
X6219238Y3079904D01*
X6504952Y3460857D02*
X6314476Y3318000D01*
X6504952Y3175142D01*
X6076381Y2556095D02*
X6314476Y2556095D01*
X6219238Y2794190D02*
X6314476Y2556095D01*
X6219238Y2317999D01*
X6504952Y2698952D02*
X6314476Y2556095D01*
X6504952Y2413237D01*
X3774381Y5651333D02*
X3298190Y5984667D01*
X3774381Y6222762D02*
X2774381Y6222762D01*
X2774381Y5841809D01*
X2822000Y5746571D01*
X2869619Y5698952D01*
X2964857Y5651333D01*
X3107714Y5651333D01*
X3202952Y5698952D01*
X3250571Y5746571D01*
X3298190Y5841809D01*
X3298190Y6222762D01*
X3250571Y5222762D02*
X3250571Y4889428D01*
X3774381Y4746571D02*
X3774381Y5222762D01*
X2774381Y5222762D01*
X2774381Y4746571D01*
X3250571Y3984666D02*
X3250571Y4318000D01*
X3774381Y4318000D02*
X2774381Y4318000D01*
X2774381Y3841809D01*
X2774381Y3318000D02*
X3012476Y3318000D01*
X2917238Y3556095D02*
X3012476Y3318000D01*
X2917238Y3079904D01*
X3202952Y3460857D02*
X3012476Y3318000D01*
X3202952Y3175142D01*
X2774381Y2556095D02*
X3012476Y2556095D01*
X2917238Y2794190D02*
X3012476Y2556095D01*
X2917238Y2317999D01*
X3202952Y2698952D02*
X3012476Y2556095D01*
X3202952Y2413237D01*
M02*
