G04 #@! TF.FileFunction,Copper,L4,Inr,Signal*
%FSLAX46Y46*%
G04 Gerber Fmt 4.6, Leading zero omitted, Abs format (unit mm)*
G04 Created by KiCad (PCBNEW 4.0.6) date 05/23/18 19:53:49*
%MOMM*%
%LPD*%
G01*
G04 APERTURE LIST*
%ADD10C,0.100000*%
%ADD11C,1.524000*%
%ADD12C,2.200000*%
%ADD13C,2.000000*%
%ADD14C,1.750000*%
%ADD15O,3.010000X1.510000*%
%ADD16C,0.508000*%
%ADD17C,1.219200*%
%ADD18C,0.650010*%
%ADD19C,2.999990*%
%ADD20C,0.500000*%
%ADD21C,1.270000*%
G04 APERTURE END LIST*
D10*
D11*
X21336000Y24638000D03*
X21336000Y27178000D03*
X21336000Y19558000D03*
X21336000Y22098000D03*
D12*
X2032000Y24130000D03*
X2032000Y29210000D03*
X7112000Y29210000D03*
X7112000Y24130000D03*
D13*
X4572000Y26670000D03*
D14*
X13395000Y36770000D03*
X13395000Y29270000D03*
X17145000Y33020000D03*
D12*
X1905000Y13208000D03*
X1905000Y18288000D03*
X6985000Y18288000D03*
X6985000Y13208000D03*
D13*
X4445000Y15748000D03*
D11*
X37592000Y20828000D03*
X37592000Y23368000D03*
D15*
X113665000Y12446000D03*
X113665000Y14986000D03*
D11*
X91948000Y20828000D03*
X91948000Y23368000D03*
D14*
X13335000Y12640000D03*
X13335000Y5140000D03*
X17085000Y8890000D03*
D16*
X73704700Y29164030D03*
D17*
X12299950Y18949920D03*
X16199870Y18949920D03*
X24100030Y13549880D03*
X22900130Y31150050D03*
X53710080Y23360130D03*
D18*
X61000130Y20400010D03*
D17*
X27010110Y20360130D03*
X67444620Y11487400D03*
X38623750Y10348210D03*
D19*
X32599880Y20649950D03*
X96899980Y20649950D03*
X96899980Y26649930D03*
X96899980Y14649960D03*
D17*
X89696040Y22130000D03*
X88141050Y20278600D03*
D19*
X32599880Y14649960D03*
D20*
X84196940Y12949940D02*
X88141050Y16894050D01*
X88141050Y16894050D02*
X88141050Y20278600D01*
X43109900Y12949940D02*
X84196940Y12949940D01*
X40132000Y15927840D02*
X43109900Y12949940D01*
X40132000Y25273000D02*
X40132000Y15927840D01*
X43208960Y28349960D02*
X40132000Y25273000D01*
X87876890Y28349960D02*
X43208960Y28349960D01*
D21*
X87876890Y28349960D02*
X93096080Y28349960D01*
X93096080Y28349960D02*
X94909890Y30164020D01*
X94909890Y30164020D02*
X103410000Y30164020D01*
X103410000Y30164020D02*
X107510070Y26063960D01*
X107510070Y26063960D02*
X107510070Y17063970D01*
X107510070Y17063970D02*
X109510070Y15063980D01*
X109510070Y15063980D02*
X113845590Y15063980D01*
X113845590Y15063980D02*
X113899950Y15009620D01*
M02*
