*
%FSLAX25Y25*%
%MOIN*%
%ADD10R,0.060000X0.060000*%
%ADD11C,0.118110*%
%ADD12C,0.020000*%
%ADD13C,0.017717*%
%ADD14C,0.050000*%
%IPPOS*%
%LNl1.ger*%
%LPD*%
G75*
G54D10*
X0167323Y0050622D03*
G54D10*
X0167323Y0040622D03*
G54D11*
X0099528Y0045276D03*
X0099528Y0021654D03*
X0099528Y0068898D03*
X0229988Y0045276D03*
G54D10*
X0079843Y0045276D03*
G54D12*
X0050551Y0003268D03*
G54D12*
X0003307Y0004468D03*
G54D12*
X0050551Y0005668D03*
G54D12*
X0003307Y0006862D03*
G54D12*
X0050551Y0008068D03*
G54D12*
X0003307Y0009268D03*
G54D12*
X0050551Y0010468D03*
G54D12*
X0003307Y0011668D03*
G54D12*
X0050551Y0012868D03*
G54D12*
X0003307Y0014068D03*
G54D12*
X0050551Y0015268D03*
G54D12*
X0003307Y0016468D03*
G54D12*
X0050551Y0017668D03*
G54D12*
X0003307Y0018868D03*
G54D12*
X0050551Y0020068D03*
G54D12*
X0003307Y0021268D03*
G54D12*
X0050551Y0022468D03*
G54D12*
X0003307Y0023668D03*
G54D12*
X0050551Y0024868D03*
G54D12*
X0003307Y0026068D03*
G54D12*
X0050551Y0027268D03*
G54D12*
X0003307Y0028468D03*
G54D12*
X0050551Y0029668D03*
G54D12*
X0003307Y0030868D03*
G54D12*
X0050551Y0032068D03*
G54D12*
X0003307Y0033268D03*
G54D12*
X0050551Y0034468D03*
G54D12*
X0003307Y0035668D03*
G54D12*
X0050551Y0036868D03*
G54D12*
X0003307Y0038068D03*
G54D12*
X0050551Y0039268D03*
G54D12*
X0003307Y0040468D03*
G54D12*
X0050551Y0041668D03*
G54D12*
X0003307Y0042868D03*
G54D12*
X0050551Y0044068D03*
G54D12*
X0003307Y0045268D03*
G54D12*
X0050551Y0046468D03*
G54D12*
X0003307Y0047668D03*
G54D12*
X0050551Y0048868D03*
G54D12*
X0003307Y0050068D03*
G54D12*
X0050551Y0051268D03*
G54D12*
X0003307Y0052468D03*
G54D12*
X0050551Y0053668D03*
G54D12*
X0003307Y0054868D03*
G54D12*
X0050551Y0056068D03*
G54D12*
X0003307Y0057262D03*
G54D12*
X0050551Y0058468D03*
G54D12*
X0003307Y0059668D03*
G54D12*
X0050551Y0060868D03*
G54D12*
X0003307Y0062068D03*
G54D12*
X0050551Y0063268D03*
G54D12*
X0003307Y0064468D03*
G54D12*
X0050551Y0065668D03*
G54D12*
X0003307Y0066868D03*
G54D12*
X0050551Y0068068D03*
G54D12*
X0003307Y0069268D03*
G54D12*
X0050551Y0070468D03*
G54D12*
X0003307Y0071668D03*
G54D12*
X0050551Y0072868D03*
G54D12*
X0003307Y0074068D03*
G54D12*
X0050551Y0075268D03*
G54D12*
X0003307Y0076468D03*
G54D12*
X0050551Y0077668D03*
G54D12*
X0003307Y0078868D03*
G54D12*
X0050551Y0080068D03*
G54D12*
X0003307Y0081268D03*
G54D12*
X0050551Y0082468D03*
G54D12*
X0003307Y0083668D03*
G54D12*
X0050551Y0084868D03*
G54D12*
X0003307Y0086068D03*
G54D12*
X0050551Y0087268D03*
G54D13*
X0050551Y0034468D02*
X0003307Y0033268D01*
X0050551Y0032068D02*
X0003307Y0030868D01*
X0050551Y0029668D02*
X0003307Y0028468D01*
X0050551Y0027268D02*
X0003307Y0026068D01*
X0050551Y0024868D02*
X0003307Y0023668D01*
X0050551Y0022468D02*
X0003307Y0021268D01*
X0050551Y0020068D02*
X0003307Y0018868D01*
X0050551Y0017668D02*
X0003307Y0016468D01*
X0050551Y0015268D02*
X0003307Y0014068D01*
X0050551Y0012868D02*
X0003307Y0011668D01*
X0050551Y0010468D02*
X0003307Y0009268D01*
X0050551Y0008068D02*
X0003307Y0006862D01*
X0050551Y0005668D02*
X0003307Y0004468D01*
X0050551Y0087268D02*
X0003307Y0086068D01*
X0050551Y0084868D02*
X0003307Y0083668D01*
X0050551Y0082468D02*
X0003307Y0081268D01*
X0050551Y0080068D02*
X0003307Y0078868D01*
X0050551Y0077668D02*
X0003307Y0076468D01*
X0050551Y0075268D02*
X0003307Y0074068D01*
X0050551Y0072868D02*
X0003307Y0071668D01*
X0050551Y0070468D02*
X0003307Y0069268D01*
X0050551Y0068068D02*
X0003307Y0066868D01*
X0050551Y0065668D02*
X0003307Y0064468D01*
X0050551Y0063268D02*
X0003307Y0062068D01*
X0050551Y0060868D02*
X0003307Y0059668D01*
X0050551Y0058468D02*
X0003307Y0057262D01*
X0050551Y0056068D02*
X0003307Y0054868D01*
X0050551Y0053668D02*
X0003307Y0052468D01*
X0050551Y0051268D02*
X0003307Y0050068D01*
X0050551Y0048868D02*
X0003307Y0047668D01*
X0050551Y0046468D02*
X0003307Y0045268D01*
X0050551Y0044068D02*
X0003307Y0042868D01*
X0050551Y0041668D02*
X0003307Y0040468D01*
X0050551Y0039268D02*
X0003307Y0038068D01*
X0050551Y0036868D02*
X0003307Y0035668D01*
X0050551Y0003268D02*
X0056811Y0003268D01*
X0056811Y0003268D02*
X0060197Y0006654D01*
G54D14*
X0060197Y0006654D02*
X0060945Y0006654D01*
X0060945Y0006654D02*
X0079685Y0025394D01*
X0079685Y0025394D02*
X0079685Y0044370D01*
X0079685Y0044370D02*
X0079843Y0044528D01*
X0079843Y0044528D02*
X0079843Y0045276D01*
G54D10*
X0079843Y0057087D03*
X0249673Y0057087D03*
G54D12*
X0284882Y0002376D03*
G54D12*
X0332126Y0003676D03*
G54D12*
X0284882Y0004976D03*
G54D12*
X0332126Y0006276D03*
G54D12*
X0284882Y0007576D03*
G54D12*
X0332126Y0008876D03*
G54D12*
X0284882Y0010176D03*
G54D12*
X0332126Y0011476D03*
G54D12*
X0284882Y0012776D03*
G54D12*
X0332126Y0014076D03*
G54D12*
X0284882Y0015376D03*
G54D12*
X0332126Y0016676D03*
G54D12*
X0284882Y0017976D03*
G54D12*
X0332126Y0019276D03*
G54D12*
X0284882Y0020576D03*
G54D12*
X0332126Y0021876D03*
G54D12*
X0284882Y0023176D03*
G54D12*
X0332126Y0024476D03*
G54D12*
X0284882Y0025776D03*
G54D12*
X0332126Y0027076D03*
G54D12*
X0284882Y0028376D03*
G54D12*
X0332126Y0029676D03*
G54D12*
X0284882Y0030976D03*
G54D12*
X0332126Y0032276D03*
G54D12*
X0284882Y0033576D03*
G54D12*
X0332126Y0034876D03*
G54D12*
X0284882Y0036176D03*
G54D12*
X0332126Y0037476D03*
G54D12*
X0284882Y0038776D03*
G54D12*
X0332126Y0040076D03*
G54D12*
X0284882Y0041376D03*
G54D12*
X0332126Y0042676D03*
G54D12*
X0284882Y0043976D03*
G54D12*
X0332126Y0045276D03*
G54D12*
X0284882Y0046576D03*
G54D12*
X0332126Y0047876D03*
G54D12*
X0284882Y0049176D03*
G54D12*
X0332126Y0050476D03*
G54D12*
X0284882Y0051776D03*
G54D12*
X0332126Y0053076D03*
G54D12*
X0284882Y0054376D03*
G54D12*
X0332126Y0055676D03*
G54D12*
X0284882Y0056976D03*
G54D12*
X0332126Y0058276D03*
G54D12*
X0284882Y0059576D03*
G54D12*
X0332126Y0060876D03*
G54D12*
X0284882Y0062176D03*
G54D12*
X0332126Y0063476D03*
G54D12*
X0284882Y0064776D03*
G54D12*
X0332126Y0066076D03*
G54D12*
X0284882Y0067376D03*
G54D12*
X0332126Y0068676D03*
G54D12*
X0284882Y0069976D03*
G54D12*
X0332126Y0071276D03*
G54D12*
X0284882Y0072576D03*
G54D12*
X0332126Y0073876D03*
G54D12*
X0284882Y0075176D03*
G54D12*
X0332126Y0076476D03*
G54D12*
X0284882Y0077776D03*
G54D12*
X0332126Y0079076D03*
G54D12*
X0284882Y0080376D03*
G54D12*
X0332126Y0081676D03*
G54D12*
X0284882Y0082976D03*
G54D12*
X0332126Y0084276D03*
G54D12*
X0284882Y0085576D03*
G54D12*
X0332126Y0086876D03*
G54D12*
X0284882Y0088176D03*
G54D10*
X0249673Y0045276D03*
G54D13*
X0284882Y0030976D02*
X0332126Y0029676D01*
X0284882Y0028376D02*
X0332126Y0027076D01*
X0284882Y0025776D02*
X0332126Y0024476D01*
X0284882Y0023176D02*
X0332126Y0021876D01*
X0284882Y0020576D02*
X0332126Y0019276D01*
X0284882Y0017976D02*
X0332126Y0016676D01*
X0284882Y0015376D02*
X0332126Y0014076D01*
X0284882Y0012776D02*
X0332126Y0011476D01*
X0284882Y0010176D02*
X0332126Y0008876D01*
X0284882Y0007576D02*
X0332126Y0006276D01*
X0284882Y0088176D02*
X0332126Y0086876D01*
X0284882Y0085576D02*
X0332126Y0084276D01*
X0284882Y0082976D02*
X0332126Y0081676D01*
X0284882Y0080376D02*
X0332126Y0079076D01*
X0284882Y0077776D02*
X0332126Y0076476D01*
X0284882Y0075176D02*
X0332126Y0073876D01*
X0284882Y0072576D02*
X0332126Y0071276D01*
X0284882Y0069976D02*
X0332126Y0068676D01*
X0284882Y0067376D02*
X0332126Y0066076D01*
X0284882Y0064776D02*
X0332126Y0063476D01*
X0284882Y0062176D02*
X0332126Y0060876D01*
X0284882Y0059576D02*
X0332126Y0058276D01*
X0284882Y0056976D02*
X0332126Y0055676D01*
X0284882Y0054376D02*
X0332126Y0053076D01*
X0284882Y0051776D02*
X0332126Y0050476D01*
X0284882Y0049176D02*
X0332126Y0047876D01*
X0284882Y0046576D02*
X0332126Y0045276D01*
X0284882Y0043976D02*
X0332126Y0042676D01*
X0284882Y0041376D02*
X0332126Y0040076D01*
X0284882Y0038776D02*
X0332126Y0037476D01*
X0284882Y0036176D02*
X0332126Y0034876D01*
X0284882Y0033576D02*
X0332126Y0032276D01*
G54D14*
X0249673Y0045276D02*
X0249673Y0021863D01*
X0249673Y0021863D02*
X0265787Y0005748D01*
G54D13*
X0265787Y0005748D02*
X0265787Y0005551D01*
X0265787Y0005551D02*
X0268150Y0003189D01*
X0268150Y0003189D02*
X0284882Y0002376D01*
X0284882Y0004976D02*
X0332126Y0003676D01*
M02*
