*
%FSLAX25Y25*%
%MOIN*%
%ADD10R,0.060000X0.060000*%
%ADD11C,0.118110*%
%ADD12C,0.020000*%
%ADD13C,0.017717*%
%ADD14C,0.050000*%
%IPPOS*%
%LNlb.ger*%
%LPD*%
G75*
G54D10*
X0167323Y0050622D03*
G54D10*
X0167323Y0040622D03*
G54D11*
X0099528Y0045276D03*
X0099528Y0021654D03*
X0099528Y0068898D03*
X0229988Y0045276D03*
G54D10*
X0079843Y0045276D03*
G54D12*
X0050551Y0003268D03*
G54D12*
X0003307Y0004468D03*
G54D12*
X0050551Y0005668D03*
G54D12*
X0003307Y0006862D03*
G54D12*
X0050551Y0008068D03*
G54D12*
X0003307Y0009268D03*
G54D12*
X0050551Y0010468D03*
G54D12*
X0003307Y0011668D03*
G54D12*
X0050551Y0012868D03*
G54D12*
X0003307Y0014068D03*
G54D12*
X0050551Y0015268D03*
G54D12*
X0003307Y0016468D03*
G54D12*
X0050551Y0017668D03*
G54D12*
X0003307Y0018868D03*
G54D12*
X0050551Y0020068D03*
G54D12*
X0003307Y0021268D03*
G54D12*
X0050551Y0022468D03*
G54D12*
X0003307Y0023668D03*
G54D12*
X0050551Y0024868D03*
G54D12*
X0003307Y0026068D03*
G54D12*
X0050551Y0027268D03*
G54D12*
X0003307Y0028468D03*
G54D12*
X0050551Y0029668D03*
G54D12*
X0003307Y0030868D03*
G54D12*
X0050551Y0032068D03*
G54D12*
X0003307Y0033268D03*
G54D12*
X0050551Y0034468D03*
G54D12*
X0003307Y0035668D03*
G54D12*
X0050551Y0036868D03*
G54D12*
X0003307Y0038068D03*
G54D12*
X0050551Y0039268D03*
G54D12*
X0003307Y0040468D03*
G54D12*
X0050551Y0041668D03*
G54D12*
X0003307Y0042868D03*
G54D12*
X0050551Y0044068D03*
G54D12*
X0003307Y0045268D03*
G54D12*
X0050551Y0046468D03*
G54D12*
X0003307Y0047668D03*
G54D12*
X0050551Y0048868D03*
G54D12*
X0003307Y0050068D03*
G54D12*
X0050551Y0051268D03*
G54D12*
X0003307Y0052468D03*
G54D12*
X0050551Y0053668D03*
G54D12*
X0003307Y0054868D03*
G54D12*
X0050551Y0056068D03*
G54D12*
X0003307Y0057262D03*
G54D12*
X0050551Y0058468D03*
G54D12*
X0003307Y0059668D03*
G54D12*
X0050551Y0060868D03*
G54D12*
X0003307Y0062068D03*
G54D12*
X0050551Y0063268D03*
G54D12*
X0003307Y0064468D03*
G54D12*
X0050551Y0065668D03*
G54D12*
X0003307Y0066868D03*
G54D12*
X0050551Y0068068D03*
G54D12*
X0003307Y0069268D03*
G54D12*
X0050551Y0070468D03*
G54D12*
X0003307Y0071668D03*
G54D12*
X0050551Y0072868D03*
G54D12*
X0003307Y0074068D03*
G54D12*
X0050551Y0075268D03*
G54D12*
X0003307Y0076468D03*
G54D12*
X0050551Y0077668D03*
G54D12*
X0003307Y0078868D03*
G54D12*
X0050551Y0080068D03*
G54D12*
X0003307Y0081268D03*
G54D12*
X0050551Y0082468D03*
G54D12*
X0003307Y0083668D03*
G54D12*
X0050551Y0084868D03*
G54D12*
X0003307Y0086068D03*
G54D12*
X0050551Y0087268D03*
G54D13*
X0003307Y0035668D02*
X0050551Y0034468D01*
X0003307Y0033268D02*
X0050551Y0032068D01*
X0003307Y0030868D02*
X0050551Y0029668D01*
X0003307Y0028468D02*
X0050551Y0027268D01*
X0003307Y0026068D02*
X0050551Y0024868D01*
X0003307Y0023668D02*
X0050551Y0022468D01*
X0003307Y0021268D02*
X0050551Y0020068D01*
X0003307Y0018868D02*
X0050551Y0017668D01*
X0003307Y0016468D02*
X0050551Y0015268D01*
X0003307Y0014068D02*
X0050551Y0012868D01*
X0003307Y0011668D02*
X0050551Y0010468D01*
X0003307Y0009268D02*
X0050551Y0008068D01*
X0003307Y0006862D02*
X0050551Y0005668D01*
X0003307Y0086068D02*
X0050551Y0084868D01*
X0003307Y0083668D02*
X0050551Y0082468D01*
X0003307Y0081268D02*
X0050551Y0080068D01*
X0003307Y0078868D02*
X0050551Y0077668D01*
X0003307Y0076468D02*
X0050551Y0075268D01*
X0003307Y0074068D02*
X0050551Y0072868D01*
X0003307Y0071668D02*
X0050551Y0070468D01*
X0003307Y0069268D02*
X0050551Y0068068D01*
X0003307Y0066868D02*
X0050551Y0065668D01*
X0003307Y0064468D02*
X0050551Y0063268D01*
X0003307Y0062068D02*
X0050551Y0060868D01*
X0003307Y0059668D02*
X0050551Y0058468D01*
X0003307Y0057262D02*
X0050551Y0056068D01*
X0003307Y0054868D02*
X0050551Y0053668D01*
X0003307Y0052468D02*
X0050551Y0051268D01*
X0003307Y0050068D02*
X0050551Y0048868D01*
X0003307Y0047668D02*
X0050551Y0046468D01*
X0003307Y0045268D02*
X0050551Y0044068D01*
X0003307Y0042868D02*
X0050551Y0041668D01*
X0003307Y0040468D02*
X0050551Y0039268D01*
X0003307Y0038068D02*
X0050551Y0036868D01*
X0003307Y0004468D02*
X0050551Y0003268D01*
G54D14*
X0167323Y0050622D02*
X0149378Y0050622D01*
X0149378Y0050622D02*
X0117480Y0082520D01*
X0117480Y0082520D02*
X0063543Y0082520D01*
G54D13*
X0063543Y0082520D02*
X0062992Y0082520D01*
X0062992Y0082520D02*
X0058150Y0087362D01*
X0058150Y0087362D02*
X0050732Y0087362D01*
X0050732Y0087362D02*
X0050638Y0087268D01*
X0050638Y0087268D02*
X0050551Y0087268D01*
G54D10*
X0079843Y0057087D03*
G54D14*
X0079843Y0057087D02*
X0131378Y0057087D01*
X0131378Y0057087D02*
X0147716Y0040748D01*
X0147716Y0040748D02*
X0166701Y0040748D01*
X0166701Y0040748D02*
X0166827Y0040622D01*
X0166827Y0040622D02*
X0167323Y0040622D01*
G54D10*
X0249673Y0057087D03*
G54D12*
X0284882Y0002376D03*
G54D12*
X0332126Y0003676D03*
G54D12*
X0284882Y0004976D03*
G54D12*
X0332126Y0006276D03*
G54D12*
X0284882Y0007576D03*
G54D12*
X0332126Y0008876D03*
G54D12*
X0284882Y0010176D03*
G54D12*
X0332126Y0011476D03*
G54D12*
X0284882Y0012776D03*
G54D12*
X0332126Y0014076D03*
G54D12*
X0284882Y0015376D03*
G54D12*
X0332126Y0016676D03*
G54D12*
X0284882Y0017976D03*
G54D12*
X0332126Y0019276D03*
G54D12*
X0284882Y0020576D03*
G54D12*
X0332126Y0021876D03*
G54D12*
X0284882Y0023176D03*
G54D12*
X0332126Y0024476D03*
G54D12*
X0284882Y0025776D03*
G54D12*
X0332126Y0027076D03*
G54D12*
X0284882Y0028376D03*
G54D12*
X0332126Y0029676D03*
G54D12*
X0284882Y0030976D03*
G54D12*
X0332126Y0032276D03*
G54D12*
X0284882Y0033576D03*
G54D12*
X0332126Y0034876D03*
G54D12*
X0284882Y0036176D03*
G54D12*
X0332126Y0037476D03*
G54D12*
X0284882Y0038776D03*
G54D12*
X0332126Y0040076D03*
G54D12*
X0284882Y0041376D03*
G54D12*
X0332126Y0042676D03*
G54D12*
X0284882Y0043976D03*
G54D12*
X0332126Y0045276D03*
G54D12*
X0284882Y0046576D03*
G54D12*
X0332126Y0047876D03*
G54D12*
X0284882Y0049176D03*
G54D12*
X0332126Y0050476D03*
G54D12*
X0284882Y0051776D03*
G54D12*
X0332126Y0053076D03*
G54D12*
X0284882Y0054376D03*
G54D12*
X0332126Y0055676D03*
G54D12*
X0284882Y0056976D03*
G54D12*
X0332126Y0058276D03*
G54D12*
X0284882Y0059576D03*
G54D12*
X0332126Y0060876D03*
G54D12*
X0284882Y0062176D03*
G54D12*
X0332126Y0063476D03*
G54D12*
X0284882Y0064776D03*
G54D12*
X0332126Y0066076D03*
G54D12*
X0284882Y0067376D03*
G54D12*
X0332126Y0068676D03*
G54D12*
X0284882Y0069976D03*
G54D12*
X0332126Y0071276D03*
G54D12*
X0284882Y0072576D03*
G54D12*
X0332126Y0073876D03*
G54D12*
X0284882Y0075176D03*
G54D12*
X0332126Y0076476D03*
G54D12*
X0284882Y0077776D03*
G54D12*
X0332126Y0079076D03*
G54D12*
X0284882Y0080376D03*
G54D12*
X0332126Y0081676D03*
G54D12*
X0284882Y0082976D03*
G54D12*
X0332126Y0084276D03*
G54D12*
X0284882Y0085576D03*
G54D12*
X0332126Y0086876D03*
G54D12*
X0284882Y0088176D03*
G54D10*
X0249673Y0045276D03*
G54D13*
X0332126Y0032276D02*
X0284882Y0030976D01*
X0332126Y0029676D02*
X0284882Y0028376D01*
X0332126Y0027076D02*
X0284882Y0025776D01*
X0332126Y0024476D02*
X0284882Y0023176D01*
X0332126Y0021876D02*
X0284882Y0020576D01*
X0332126Y0019276D02*
X0284882Y0017976D01*
X0332126Y0016676D02*
X0284882Y0015376D01*
X0332126Y0014076D02*
X0284882Y0012776D01*
X0332126Y0011476D02*
X0284882Y0010176D01*
X0332126Y0008876D02*
X0284882Y0007576D01*
X0332126Y0006276D02*
X0284882Y0004976D01*
X0332126Y0003676D02*
X0284882Y0002376D01*
X0332126Y0086876D02*
X0284882Y0085576D01*
X0332126Y0084276D02*
X0284882Y0082976D01*
X0332126Y0081676D02*
X0284882Y0080376D01*
X0332126Y0079076D02*
X0284882Y0077776D01*
X0332126Y0076476D02*
X0284882Y0075176D01*
X0332126Y0073876D02*
X0284882Y0072576D01*
X0332126Y0071276D02*
X0284882Y0069976D01*
X0332126Y0068676D02*
X0284882Y0067376D01*
X0332126Y0066076D02*
X0284882Y0064776D01*
X0332126Y0063476D02*
X0284882Y0062176D01*
X0332126Y0060876D02*
X0284882Y0059576D01*
X0332126Y0058276D02*
X0284882Y0056976D01*
X0332126Y0055676D02*
X0284882Y0054376D01*
X0332126Y0053076D02*
X0284882Y0051776D01*
X0332126Y0050476D02*
X0284882Y0049176D01*
X0332126Y0047876D02*
X0284882Y0046576D01*
X0332126Y0045276D02*
X0284882Y0043976D01*
X0332126Y0042676D02*
X0284882Y0041376D01*
X0332126Y0040076D02*
X0284882Y0038776D01*
X0332126Y0037476D02*
X0284882Y0036176D01*
X0332126Y0034876D02*
X0284882Y0033576D01*
G54D14*
X0249673Y0057087D02*
X0276299Y0083713D01*
X0276299Y0083713D02*
X0276299Y0084646D01*
G54D13*
X0276299Y0084646D02*
X0278921Y0087268D01*
X0278921Y0087268D02*
X0284882Y0088176D01*
M02*
